<svg width="2272" height="2060" viewBox="0 0 2272 2060" fill="none" xmlns="http://www.w3.org/2000/svg">
<g clip-path="url(#clip0_321_93)">
<rect x="197.989" y="499.102" width="417.766" height="390.138" rx="20" transform="rotate(-40.0247 197.989 499.102)" fill="white"/>
<ellipse cx="1049" cy="1129.84" rx="739" ry="741.52" fill="white"/>
<path fill-rule="evenodd" clip-rule="evenodd" d="M1881.18 1891.18L1667.5 1677.5C1640.17 1650.16 1641.51 1604.5 1670.5 1575.5C1699.5 1546.51 1745.16 1545.16 1772.5 1572.5L1986.18 1786.18L1881.18 1891.18Z" fill="white"/>
<path fill-rule="evenodd" clip-rule="evenodd" d="M1988 1788L1773.14 2002.86C1745.45 2030.55 1699.98 2029.98 1671.59 2001.59C1643.2 1973.2 1642.63 1927.74 1670.33 1900.05L1885.18 1685.19L1988 1788Z" fill="white"/>
<path d="M296.999 1789C296.999 1750.34 328.339 1719 366.999 1719H1722C1744.09 1719 1762 1736.91 1762 1759V1831C1762 1853.09 1744.09 1871 1722 1871H366.999C328.339 1871 296.999 1839.66 296.999 1801V1789Z" fill="white"/>
<mask id="mask0_321_93" style="mask-type:alpha" maskUnits="userSpaceOnUse" x="377" y="441" width="1362" height="1386">
<path d="M1057.94 1796.2C699.212 1796.2 407.525 1500.2 407.525 1133.96C407.526 767.72 699.212 471.713 1057.94 471.713C1416.67 471.713 1708.36 767.72 1708.36 1133.96C1708.36 1500.2 1416.67 1796.2 1057.94 1796.2Z" stroke="#0C1A33" stroke-width="60"/>
</mask>
<g mask="url(#mask0_321_93)">
<path d="M1908.78 1894.71L1073.19 1894.71L1073.19 291.293L1908.78 291.293L1908.78 1894.71Z" fill="#144E63"/>
</g>
<path fill-rule="evenodd" clip-rule="evenodd" d="M1743.03 1973.9L1884.42 1832.51L1926.85 1790.08L1884.42 1747.65L1741.45 1604.68C1729.73 1592.97 1710.74 1592.97 1699.02 1604.68C1687.31 1616.4 1687.31 1635.39 1699.02 1647.11L1811.91 1760L872.998 1760C872.909 1760 872.82 1760 872.731 1760H372.004C353.776 1760 339 1774.77 339 1793C339 1811.23 353.776 1826 372.004 1826H1163V1826L1806.08 1826L1700.6 1931.47C1688.89 1943.19 1688.89 1962.18 1700.6 1973.9C1712.32 1985.62 1731.31 1985.62 1743.03 1973.9Z" fill="#144E63"/>
<mask id="mask1_321_93" style="mask-type:alpha" maskUnits="userSpaceOnUse" x="330" y="1118" width="548" height="599">
<rect x="330" y="1118" width="548" height="599" fill="#D9D9D9"/>
</mask>
<g mask="url(#mask1_321_93)">
<path d="M1042.42 494.579C1401.54 494.579 1692.83 786.723 1692.83 1147.32C1692.83 1507.91 1401.54 1800.05 1042.42 1800.05C683.296 1800.05 391.998 1507.91 391.998 1147.32C391.998 786.723 683.297 494.579 1042.42 494.579Z" stroke="#144E63" stroke-width="60"/>
</g>
<circle cx="392.5" cy="1118" r="30" fill="#144E63"/>
<rect x="752.618" y="1269.56" width="38" height="66" transform="rotate(-2.2393 752.618 1269.56)" fill="white"/>
<mask id="mask2_321_93" style="mask-type:alpha" maskUnits="userSpaceOnUse" x="427" y="512" width="1244" height="1244">
<circle cx="1048.93" cy="1133.93" r="621" transform="rotate(105.048 1048.93 1133.93)" fill="#09B3AD"/>
<circle cx="1048.93" cy="1133.93" r="621" transform="rotate(105.048 1048.93 1133.93)" fill="black" fill-opacity="0.2"/>
</mask>
<g mask="url(#mask2_321_93)">
<circle cx="1047.93" cy="1156.93" r="621" transform="rotate(105.048 1047.93 1156.93)" fill="#08B2E3"/>
<path d="M718.303 1315.02C673.56 1211.66 516.41 1195.82 443.428 1200.83C390.386 1242.9 302.33 1353.13 374.439 1457.44C480.546 1629.68 612.149 1617.18 664.687 1589.39C701.202 1541 763.045 1418.39 718.303 1315.02Z" fill="#09B3AD"/>
<path d="M718.303 1315.02C673.56 1211.66 516.41 1195.82 443.428 1200.83C390.386 1242.9 302.33 1353.13 374.439 1457.44C480.546 1629.68 612.149 1617.18 664.687 1589.39C701.202 1541 763.045 1418.39 718.303 1315.02Z" fill="black" fill-opacity="0.2"/>
<path fill-rule="evenodd" clip-rule="evenodd" d="M695.559 1465.14C708.982 1418.99 711.97 1369.62 693.064 1325.95C675.39 1285.11 634.233 1258.88 583.528 1243.62C537.42 1229.74 487.999 1226.44 453.964 1227.8C431.015 1247.57 403.125 1279.61 387.281 1316.62C370.347 1356.17 367.711 1399.35 397.059 1441.8L397.472 1442.4L397.852 1443.01C447.952 1524.34 502.155 1559.23 547.143 1571.97C589.113 1583.85 625.233 1577.12 646.515 1567.66C662.573 1545.04 683.158 1507.78 695.559 1465.14ZM748.371 1480.5C732.905 1533.68 706.677 1579.4 686.637 1605.96L682.951 1610.84L677.541 1613.7C645.229 1630.79 591.921 1641.81 532.158 1624.88C471.817 1607.8 407.318 1562.98 351.397 1472.46C309.091 1410.8 314.467 1346.95 336.72 1294.97C358.594 1243.88 397.245 1202.36 426.337 1179.28L433.027 1173.98L441.546 1173.39C480.603 1170.71 541.559 1173.55 599.38 1190.95C656.681 1208.2 716.471 1241.56 743.539 1304.1C769.376 1363.79 763.813 1427.41 748.371 1480.5Z" fill="white"/>
<path d="M1492.69 892.06C1543.52 856.657 1535.99 795.021 1525.88 768.629C1573.72 781.492 1684.28 943.569 1706.61 1044.68C1734.59 1328.09 1623.55 1515.08 1564.54 1573.14C1505.69 1551.94 1438.56 1518.71 1414 1454C1389.44 1389.29 1432.87 1366.65 1437.12 1254.81C1441.37 1142.97 1145.63 1150.62 1164.81 1007.28C1183.98 863.942 1429.16 936.314 1492.69 892.06Z" fill="#09B3AD"/>
<path d="M1492.69 892.06C1543.52 856.657 1535.99 795.021 1525.88 768.629C1573.72 781.492 1684.28 943.569 1706.61 1044.68C1734.59 1328.09 1623.55 1515.08 1564.54 1573.14C1505.69 1551.94 1438.56 1518.71 1414 1454C1389.44 1389.29 1432.87 1366.65 1437.12 1254.81C1441.37 1142.97 1145.63 1150.62 1164.81 1007.28C1183.98 863.942 1429.16 936.314 1492.69 892.06Z" fill="black" fill-opacity="0.2"/>
<path fill-rule="evenodd" clip-rule="evenodd" d="M1733.98 1041.98C1762.74 1333.36 1648.98 1528.63 1583.83 1592.74L1571.5 1604.88L1555.22 1599.01C1496.24 1577.76 1417.64 1541.09 1388.29 1463.76C1380.9 1444.28 1378.29 1426.93 1379.19 1409.86C1380.06 1393.36 1384.19 1378.27 1388.42 1364.18C1389.25 1361.41 1390.1 1358.62 1390.97 1355.78C1398.89 1329.91 1407.86 1300.57 1409.64 1253.77C1410.14 1240.57 1402.84 1227.7 1378.8 1212.24C1358.03 1198.89 1330.96 1187.57 1300.38 1174.78C1295.24 1172.63 1290 1170.44 1284.67 1168.19C1249.56 1153.36 1210.7 1135.97 1182.07 1111.67C1151.98 1086.13 1131.2 1051.09 1137.55 1003.64C1143.65 958.059 1168.68 928.467 1202.37 910.704C1234.26 893.888 1273.42 887.83 1310.06 885.09C1328.71 883.696 1347.55 883.119 1365.4 882.678C1368.53 882.601 1371.62 882.528 1374.67 882.456C1389.27 882.111 1403 881.786 1415.92 881.113C1431.56 880.299 1444.9 879.019 1455.81 876.86C1467.01 874.645 1473.53 871.895 1476.97 869.495C1494.91 856.999 1502.53 840.282 1504.9 823.189C1507.38 805.303 1503.85 787.988 1500.2 778.472L1480.87 728.053L1533.02 742.072C1544.05 745.038 1554.36 751.44 1563.19 758.21C1572.39 765.26 1581.84 774.162 1591.21 784.15C1609.98 804.145 1629.92 830.066 1648.71 858.336C1685.93 914.307 1721.24 983.397 1733.47 1038.75L1733.82 1040.35L1733.98 1041.98ZM1679.41 1049.05C1668.95 1003.44 1638.12 941.744 1602.91 888.788C1588.24 866.725 1573.26 846.858 1559.35 830.913C1555.28 860.04 1541.23 891.763 1508.41 914.626C1495.97 923.289 1480.93 927.957 1466.48 930.815C1451.75 933.729 1435.37 935.175 1418.78 936.039C1405 936.756 1390.32 937.103 1375.71 937.447C1372.72 937.518 1369.74 937.588 1366.76 937.661C1349 938.1 1331.34 938.653 1314.16 939.937C1279.17 942.554 1249.47 948.044 1228.02 959.356C1208.36 969.72 1195.55 984.834 1192.06 1010.93C1188.83 1035.14 1197.83 1052.9 1217.66 1069.73C1238.96 1087.81 1270.17 1102.36 1306.07 1117.52C1310.89 1119.56 1315.82 1121.62 1320.81 1123.7C1350.97 1136.27 1383.32 1149.76 1408.54 1165.98C1438.15 1185.02 1466.23 1213.13 1464.6 1255.85C1462.55 1310 1451.73 1345.27 1443.59 1371.79C1442.73 1374.62 1441.89 1377.34 1441.1 1379.98C1437.01 1393.62 1434.62 1403.31 1434.12 1412.76C1433.65 1421.62 1434.82 1431.36 1439.71 1444.24C1457.57 1491.31 1504.75 1520.16 1556.99 1540.9C1612.37 1476.4 1704.15 1304.47 1679.41 1049.05Z" fill="white"/>
<path fill-rule="evenodd" clip-rule="evenodd" d="M487.857 983.09C404.548 1292.96 588.216 1611.7 898.09 1695.01C1207.96 1778.32 1526.7 1594.65 1610.01 1284.78C1693.32 974.903 1509.65 656.165 1199.78 572.857C889.903 489.548 571.165 673.216 487.857 983.09ZM449.228 972.705C360.184 1303.91 556.497 1644.59 887.705 1733.64C1218.91 1822.68 1559.6 1626.37 1648.64 1295.16C1737.68 963.954 1541.37 623.272 1210.16 534.228C878.954 445.184 538.272 641.497 449.228 972.705Z" fill="white"/>
</g>
<circle cx="1080" cy="471.999" r="30" fill="#144E63"/>
<mask id="mask3_321_93" style="mask-type:alpha" maskUnits="userSpaceOnUse" x="319" y="345" width="1244" height="1244">
<circle cx="940.936" cy="966.934" r="621" transform="rotate(105.048 940.936 966.934)" fill="#08B2E3"/>
</mask>
<g mask="url(#mask3_321_93)">
<circle opacity="0.2" cx="1047.94" cy="1167.93" r="621" transform="rotate(105.048 1047.94 1167.93)" fill="white"/>
<path d="M505.002 930L519.408 872.353C759.788 771.059 830.859 616.03 836.348 551.177C846.226 552 879.567 547.402 895.002 545C861.25 772.295 620.939 896.373 505.002 930Z" fill="white"/>
</g>
<path d="M949.724 899.722C949.899 898.875 950.033 898.019 950.086 897.164C950.708 887 943.676 877.753 933.5 875.82C922.43 873.749 911.77 881.048 909.659 892.183C904.51 919.531 890.562 944.453 870.47 962.363C851.376 979.306 827.537 989.729 801.509 992.443C790.317 993.603 782.102 1003.75 783.342 1014.9C784.538 1026.08 794.519 1034.31 805.707 1033.11C840.207 1029.53 871.953 1015.65 897.478 992.998C924.354 969.068 942.889 935.939 949.723 899.72L949.724 899.722Z" fill="white" fill-opacity="0.7"/>
<path d="M993.177 898.157C987.004 944.214 964.211 986.83 928.885 1018.15C893.145 1049.89 849.374 1066.92 802.344 1067.49C791.091 1067.61 782.195 1076.95 782.199 1088.18C782.317 1099.42 791.537 1108.46 802.74 1108.37C858.958 1107.68 913.356 1086.55 955.883 1048.74C998.488 1010.9 1026.08 959.314 1033.53 903.505C1033.65 903.018 1033.68 902.533 1033.71 902.04C1034.36 891.425 1026.73 881.983 1016.03 880.546C1004.89 879.082 994.676 886.977 993.177 898.158L993.177 898.157Z" fill="white" fill-opacity="0.4"/>
<rect x="116.999" y="887.153" width="310.554" height="195.379" transform="rotate(-43.0901 116.999 887.153)" fill="#09B3AD"/>
<rect x="116.999" y="887.153" width="310.554" height="195.379" transform="rotate(-43.0901 116.999 887.153)" fill="black" fill-opacity="0.2"/>
<rect x="116.999" y="887.153" width="310.554" height="195.379" transform="rotate(-43.0901 116.999 887.153)" stroke="white" stroke-width="40"/>
<rect x="652.999" y="397.154" width="310.554" height="195.379" transform="rotate(-43.0901 652.999 397.154)" fill="#09B3AD"/>
<rect x="652.999" y="397.154" width="310.554" height="195.379" transform="rotate(-43.0901 652.999 397.154)" fill="black" fill-opacity="0.2"/>
<rect x="652.999" y="397.154" width="310.554" height="195.379" transform="rotate(-43.0901 652.999 397.154)" stroke="white" stroke-width="40"/>
<path fill-rule="evenodd" clip-rule="evenodd" d="M571.852 663.269L625.348 732.188L724.557 782.925L708.62 814.087L605.944 761.576L602.476 759.803L600.088 756.726L544.204 684.73L571.852 663.269Z" fill="white"/>
<path d="M1190.59 283.021L1194.13 267.23L1233.76 245.645C1236.74 243.954 1239.32 242.373 1241.48 240.901C1243.65 239.399 1245.4 237.805 1246.75 236.117C1248.09 234.401 1249.02 232.419 1249.52 230.171C1250.08 227.658 1250.02 225.392 1249.32 223.372C1248.63 221.323 1247.43 219.596 1245.73 218.189C1244.03 216.783 1241.93 215.801 1239.45 215.245C1236.94 214.682 1234.62 214.706 1232.49 215.317C1230.38 215.898 1228.57 217.031 1227.07 218.714C1225.61 220.404 1224.57 222.625 1223.95 225.375L1203.15 220.714C1204.53 214.534 1207.12 209.508 1210.91 205.636C1214.69 201.764 1219.37 199.179 1224.94 197.88C1230.55 196.559 1236.69 196.647 1243.37 198.144C1250.26 199.687 1255.99 202.182 1260.56 205.628C1265.13 209.074 1268.34 213.178 1270.2 217.941C1272.08 222.68 1272.42 227.77 1271.2 233.211C1270.42 236.671 1268.96 239.945 1266.81 243.035C1264.66 246.124 1261.32 249.319 1256.79 252.621C1252.29 255.93 1246.1 259.714 1238.22 263.973L1225.11 271.563L1224.98 272.14L1261.79 280.387L1257.83 298.085L1190.59 283.021Z" fill="#144E63"/>
<path d="M1309.62 316.717C1301.92 314.139 1295.89 310.092 1291.54 304.576C1287.2 299.031 1284.66 292.32 1283.95 284.442C1283.24 276.535 1284.52 267.745 1287.79 258.071C1291.06 248.397 1295.32 240.684 1300.57 234.931C1305.86 229.16 1311.87 225.436 1318.6 223.758C1325.37 222.062 1332.6 222.503 1340.3 225.081C1348 227.66 1354.04 231.664 1358.42 237.094C1362.84 242.504 1365.43 249.105 1366.17 256.897C1366.92 264.689 1365.66 273.407 1362.4 283.053C1359.15 292.765 1354.86 300.564 1349.53 306.45C1344.21 312.337 1338.15 316.171 1331.35 317.954C1324.59 319.718 1317.35 319.305 1309.62 316.717ZM1315.46 299.261C1320.06 300.8 1324.57 299.704 1328.98 295.973C1333.4 292.213 1337.23 285.457 1340.46 275.707C1342.6 269.327 1343.71 263.852 1343.81 259.282C1343.91 254.682 1343.15 250.977 1341.53 248.168C1339.92 245.358 1337.57 243.438 1334.5 242.408C1329.93 240.879 1325.46 241.955 1321.1 245.639C1316.74 249.294 1312.95 255.886 1309.73 265.417C1307.54 271.872 1306.36 277.438 1306.2 282.114C1306.07 286.8 1306.82 290.582 1308.44 293.459C1310.08 296.307 1312.42 298.241 1315.46 299.261Z" fill="#144E63"/>
<path d="M1363.02 333.376L1369.71 318.639L1412.91 305.591C1416.18 304.545 1419.02 303.522 1421.44 302.522C1423.87 301.494 1425.91 300.291 1427.57 298.913C1429.24 297.507 1430.55 295.755 1431.5 293.658C1432.56 291.312 1432.96 289.08 1432.69 286.961C1432.43 284.814 1431.61 282.879 1430.23 281.155C1428.85 279.43 1427 278.042 1424.68 276.991C1422.34 275.927 1420.06 275.478 1417.86 275.642C1415.66 275.78 1413.67 276.52 1411.86 277.863C1410.08 279.219 1408.61 281.18 1407.44 283.747L1388.03 274.941C1390.64 269.173 1394.2 264.78 1398.7 261.762C1403.19 258.744 1408.3 257.167 1414.02 257.032C1419.78 256.882 1425.77 258.221 1432.01 261.05C1438.44 263.966 1443.54 267.577 1447.31 271.882C1451.08 276.188 1453.39 280.861 1454.23 285.901C1455.11 290.926 1454.4 295.978 1452.1 301.055C1450.63 304.284 1448.53 307.191 1445.8 309.777C1443.06 312.362 1439.14 314.809 1434.03 317.118C1428.95 319.44 1422.12 321.882 1413.54 324.445L1399.16 329.2L1398.91 329.738L1433.27 345.322L1425.78 361.839L1363.02 333.376Z" fill="#144E63"/>
<path d="M1470.58 388.266C1464.44 384.722 1459.6 380.529 1456.06 375.687C1452.57 370.835 1450.53 365.758 1449.95 360.455C1449.37 355.153 1450.46 350.059 1453.21 345.174L1472.81 356.489C1471.88 358.293 1471.54 360.18 1471.8 362.151C1472.08 364.095 1472.9 365.97 1474.27 367.777C1475.65 369.583 1477.49 371.153 1479.8 372.486C1482.11 373.819 1484.37 374.586 1486.6 374.787C1488.87 374.977 1490.92 374.638 1492.75 373.771C1494.6 372.876 1496.05 371.477 1497.12 369.572C1498.23 367.698 1498.67 365.707 1498.41 363.601C1498.16 361.496 1497.26 359.453 1495.7 357.473C1494.18 355.508 1492.05 353.738 1489.32 352.162L1481.49 347.641L1489.49 333.783L1497.32 338.305C1499.71 339.683 1502.04 340.501 1504.3 340.759C1506.59 341.032 1508.66 340.755 1510.5 339.929C1512.36 339.076 1513.81 337.71 1514.86 335.832C1515.93 334.036 1516.41 332.198 1516.31 330.319C1516.25 328.428 1515.65 326.647 1514.51 324.977C1513.4 323.322 1511.82 321.904 1509.78 320.723C1507.62 319.481 1505.45 318.733 1503.25 318.479C1501.08 318.24 1499.08 318.521 1497.26 319.321C1495.43 320.122 1493.96 321.425 1492.85 323.232L1474.23 312.485C1477.05 307.712 1480.83 304.259 1485.56 302.126C1490.3 299.966 1495.53 299.152 1501.24 299.684C1506.98 300.232 1512.75 302.179 1518.55 305.527C1524.32 308.859 1528.82 312.801 1532.03 317.351C1535.25 321.902 1537.07 326.627 1537.5 331.526C1537.94 336.399 1536.89 341.027 1534.36 345.41C1531.77 349.966 1528.13 352.85 1523.44 354.063C1518.78 355.29 1513.91 354.897 1508.85 352.883L1508.49 353.513C1514.31 357.853 1517.85 362.593 1519.12 367.733C1520.41 372.888 1519.61 377.938 1516.73 382.883C1514.03 387.555 1510.26 390.907 1505.41 392.938C1500.61 394.958 1495.17 395.596 1489.09 394.852C1483.05 394.097 1476.88 391.902 1470.58 388.266Z" fill="#144E63"/>
<path d="M1584.66 370.354L1595.87 355.929L1657.99 404.229L1646.77 418.654L1624.49 401.326L1578.56 460.388L1561.05 446.772L1606.98 387.709L1584.66 370.354Z" fill="#144E63"/>
<path d="M1626.52 501.282L1609.17 484.431L1696.57 439.549L1718.05 460.422L1675.71 549.077L1658.37 532.227L1691.21 467.045L1690.69 466.539L1626.52 501.282ZM1649.73 472.756L1685.99 507.977L1674.08 520.235L1637.82 485.014L1649.73 472.756Z" fill="#144E63"/>
<path d="M1766.84 556.751C1769.22 554.393 1770.36 551.703 1770.26 548.68C1770.2 545.661 1768.77 542.459 1765.97 539.073C1764.11 536.831 1762.28 535.204 1760.46 534.192C1758.64 533.18 1756.91 532.726 1755.26 532.828C1753.64 532.911 1752.16 533.482 1750.84 534.54C1749.72 535.382 1748.95 536.374 1748.52 537.517C1748.11 538.683 1747.96 539.982 1748.09 541.415C1748.25 542.851 1748.64 544.416 1749.26 546.11C1749.87 547.804 1750.68 549.613 1751.68 551.537L1755.38 558.861C1757.54 563.048 1759.1 567.027 1760.06 570.798C1761.03 574.592 1761.4 578.146 1761.15 581.458C1760.92 584.794 1760.04 587.897 1758.52 590.766C1757 593.635 1754.82 596.269 1751.96 598.668C1747.41 602.391 1742.58 604.462 1737.46 604.881C1732.34 605.3 1727.16 604.099 1721.92 601.278C1716.69 598.481 1711.61 594.093 1706.67 588.114C1701.7 582.113 1698.28 576.138 1696.39 570.191C1694.49 564.244 1694.36 558.516 1695.98 553.009C1697.6 547.502 1701.18 542.396 1706.73 537.691L1720.46 554.295C1718.26 556.347 1716.85 558.559 1716.21 560.931C1715.58 563.303 1715.66 565.775 1716.45 568.346C1717.26 570.941 1718.71 573.511 1720.82 576.057C1722.75 578.392 1724.71 580.116 1726.69 581.229C1728.69 582.366 1730.62 582.914 1732.47 582.875C1734.33 582.835 1735.99 582.229 1737.46 581.055C1738.79 579.911 1739.6 578.535 1739.88 576.926C1740.19 575.297 1739.98 573.341 1739.27 571.057C1738.61 568.777 1737.5 566.078 1735.94 562.961L1731.49 554.016C1727.78 546.626 1726.04 539.832 1726.26 533.633C1726.5 527.414 1729.35 522.067 1734.81 517.59C1739.23 513.898 1744.11 511.873 1749.43 511.517C1754.76 511.161 1760.12 512.335 1765.5 515.041C1770.88 517.746 1775.82 521.819 1780.32 527.26C1784.92 532.818 1787.96 538.422 1789.45 544.073C1790.98 549.728 1790.99 555.088 1789.48 560.154C1787.96 565.219 1785 569.619 1780.58 573.355L1766.84 556.751Z" fill="#144E63"/>
<path d="M1740.3 628.159L1817.8 576.588L1830.27 595.32L1797.5 617.127L1798.18 618.149L1847.99 621.961L1862.67 644.023L1809.81 639.565L1785.5 696.086L1770.59 673.683L1788.21 634.113L1773.77 632.915L1752.77 646.891L1740.3 628.159Z" fill="#144E63"/>
<path d="M1883.05 681.344L1801.82 726.81L1790.83 707.176L1872.06 661.71L1883.05 681.344Z" fill="#144E63"/>
<path d="M1928.82 775.673L1844.24 814.575L1836.27 797.231L1869.6 741.123L1869.35 740.586L1820.54 763.038L1811.14 742.597L1895.71 703.695L1903.8 721.287L1870.38 776.985L1870.7 777.687L1919.43 755.273L1928.82 775.673Z" fill="#144E63"/>
<path d="M1929.63 869.836C1931.28 868.751 1932.65 867.506 1933.72 866.103C1934.81 864.689 1935.63 863.131 1936.15 861.428C1936.68 859.724 1936.89 857.9 1936.8 855.954C1936.73 853.999 1936.34 851.956 1935.64 849.825C1934.24 845.536 1931.98 842.162 1928.88 839.704C1925.78 837.275 1921.97 835.863 1917.44 835.469C1912.94 835.065 1907.87 835.789 1902.22 837.642C1896.55 839.504 1891.98 841.912 1888.52 844.867C1885.06 847.822 1882.78 851.199 1881.7 854.999C1880.62 858.798 1880.81 862.915 1882.27 867.348C1883.55 871.264 1885.27 874.367 1887.43 876.658C1889.62 878.968 1892.13 880.44 1894.95 881.076C1897.78 881.712 1900.79 881.505 1903.98 880.456L1904.81 884.585L1897.75 863.078L1913.34 857.96L1925.86 896.094L1914.16 899.936C1906.24 902.536 1898.91 903.077 1892.16 901.561C1885.42 900.074 1879.57 896.889 1874.62 892.008C1869.68 887.156 1865.96 880.93 1863.47 873.329C1860.7 864.893 1860.09 856.879 1861.65 849.287C1863.21 841.695 1866.78 835.003 1872.38 829.212C1878 823.411 1885.48 818.98 1894.8 815.918C1902.06 813.536 1908.85 812.503 1915.17 812.819C1921.52 813.126 1927.29 814.566 1932.47 817.139C1937.66 819.74 1942.1 823.258 1945.79 827.692C1949.49 832.156 1952.31 837.338 1954.25 843.241C1955.93 848.366 1956.76 853.372 1956.74 858.259C1956.72 863.175 1955.94 867.771 1954.37 872.047C1952.82 876.352 1950.55 880.175 1947.56 883.515C1944.58 886.856 1940.97 889.508 1936.73 891.472L1929.63 869.836Z" fill="#144E63"/>
<path d="M1961.89 999.054C1965.12 998.187 1967.44 996.417 1968.86 993.743C1970.3 991.094 1970.65 987.604 1969.91 983.275C1969.41 980.408 1968.62 978.084 1967.55 976.302C1966.47 974.52 1965.19 973.265 1963.71 972.537C1962.26 971.803 1960.7 971.566 1959.02 971.826C1957.64 972.003 1956.48 972.481 1955.53 973.259C1954.6 974.067 1953.83 975.123 1953.22 976.427C1952.65 977.756 1952.21 979.308 1951.9 981.083C1951.6 982.859 1951.4 984.83 1951.31 986.998L1950.89 995.191C1950.69 999.9 1950.06 1004.13 1949.02 1007.88C1947.98 1011.65 1946.53 1014.92 1944.67 1017.67C1942.81 1020.45 1940.51 1022.71 1937.77 1024.44C1935.03 1026.18 1931.82 1027.38 1928.15 1028.05C1922.35 1029.02 1917.13 1028.41 1912.48 1026.24C1907.83 1024.06 1903.93 1020.44 1900.78 1015.39C1897.63 1010.37 1895.4 1004.03 1894.08 996.39C1892.75 988.716 1892.74 981.829 1894.05 975.728C1895.37 969.627 1898.09 964.589 1902.23 960.613C1906.38 956.637 1912.02 953.984 1919.17 952.655L1922.84 973.885C1919.92 974.576 1917.59 975.793 1915.86 977.538C1914.14 979.282 1912.98 981.466 1912.38 984.09C1911.8 986.744 1911.79 989.698 1912.35 992.953C1912.87 995.939 1913.71 998.407 1914.88 1000.36C1916.05 1002.34 1917.45 1003.77 1919.08 1004.66C1920.71 1005.55 1922.45 1005.84 1924.31 1005.55C1926.03 1005.22 1927.42 1004.43 1928.46 1003.17C1929.54 1001.91 1930.33 1000.11 1930.85 997.779C1931.41 995.469 1931.78 992.575 1931.98 989.096L1932.56 979.124C1933.01 970.866 1934.87 964.102 1938.14 958.831C1941.44 953.555 1946.57 950.33 1953.53 949.157C1959.2 948.146 1964.44 948.809 1969.24 951.146C1974.04 953.483 1978.11 957.162 1981.43 962.183C1984.76 967.204 1987.03 973.193 1988.23 980.151C1989.46 987.257 1989.32 993.633 1987.8 999.276C1986.32 1004.94 1983.67 1009.6 1979.84 1013.25C1976.01 1016.89 1971.25 1019.24 1965.56 1020.28L1961.89 999.054Z" fill="#144E63"/>
<path d="M1903.27 1047.91L1996.12 1041.33L1998.84 1079.68C1999.34 1086.64 1998.4 1092.73 1996.04 1097.97C1993.71 1103.24 1990.23 1107.42 1985.58 1110.52C1980.97 1113.61 1975.48 1115.38 1969.1 1115.83C1962.69 1116.29 1956.99 1115.28 1951.98 1112.81C1947.01 1110.37 1943.02 1106.66 1940.03 1101.67C1937.03 1096.69 1935.28 1090.65 1934.78 1083.55L1933.1 1059.88L1950.78 1058.62L1952.16 1078.12C1952.4 1081.51 1953.19 1084.29 1954.53 1086.47C1955.87 1088.69 1957.64 1090.31 1959.84 1091.34C1962.07 1092.36 1964.61 1092.78 1967.45 1092.57C1970.32 1092.37 1972.76 1091.61 1974.76 1090.28C1976.79 1088.95 1978.3 1087.1 1979.29 1084.72C1980.27 1082.34 1980.65 1079.47 1980.41 1076.12L1979.62 1065.05L1904.86 1070.36L1903.27 1047.91Z" fill="#144E63"/>
<path d="M1908.6 1135.23L2001.65 1137.99L2000.51 1176.43C2000.3 1183.39 1998.87 1189.37 1996.2 1194.35C1993.57 1199.37 1989.88 1203.18 1985.13 1205.8C1980.42 1208.42 1974.88 1209.63 1968.52 1209.45C1962.07 1209.25 1956.62 1207.68 1952.19 1204.73C1947.8 1201.78 1944.49 1197.68 1942.28 1192.43C1940.1 1187.18 1939.12 1181.02 1939.33 1173.93L1940.05 1149.62L1957.77 1150.15L1957.17 1170.27C1957.07 1173.67 1957.43 1176.51 1958.24 1178.81C1959.08 1181.14 1960.39 1182.92 1962.17 1184.16C1963.99 1185.39 1966.33 1186.05 1969.21 1186.14C1972.09 1186.22 1974.48 1185.7 1976.39 1184.58C1978.34 1183.45 1979.81 1181.75 1980.82 1179.48C1981.86 1177.21 1982.43 1174.39 1982.53 1171.03L1982.85 1159.94L1907.93 1157.72L1908.6 1135.23ZM1949.57 1188.88L1906.36 1210.79L1907.09 1186.25L1950.29 1164.79L1949.57 1188.88Z" fill="#144E63"/>
<path d="M1994.67 1255.98L1902.08 1246.35L1904.41 1223.97L1997 1233.61L1994.67 1255.98Z" fill="#144E63"/>
<path d="M1977.74 1359.45L1886.2 1342.52L1889.67 1323.75L1949.24 1297.09L1949.34 1296.51L1896.51 1286.74L1900.6 1264.62L1992.14 1281.54L1988.62 1300.59L1929.22 1326.86L1929.08 1327.62L1981.82 1337.37L1977.74 1359.45Z" fill="#144E63"/>
<path d="M1957.32 1376.78L1974.56 1382.83L1948.53 1457.08L1931.29 1451.03L1940.62 1424.4L1870.02 1399.64L1877.36 1378.71L1947.96 1403.46L1957.32 1376.78Z" fill="#144E63"/>
<path d="M325.72 2016V1922.91H364.174C371.144 1922.91 377.159 1924.27 382.22 1927C387.31 1929.7 391.235 1933.47 393.992 1938.32C396.75 1943.14 398.129 1948.74 398.129 1955.14C398.129 1961.56 396.72 1967.18 393.901 1972C391.113 1976.79 387.129 1980.5 381.947 1983.14C376.765 1985.77 370.613 1987.09 363.492 1987.09H339.765V1969.36H359.31C362.704 1969.36 365.538 1968.77 367.81 1967.59C370.113 1966.41 371.856 1964.76 373.038 1962.64C374.22 1960.48 374.81 1957.98 374.81 1955.14C374.81 1952.26 374.22 1949.77 373.038 1947.68C371.856 1945.56 370.113 1943.92 367.81 1942.77C365.507 1941.62 362.674 1941.05 359.31 1941.05H348.22V2016H325.72ZM416.9 2016V1922.91H439.4V1960.27H476.081V1922.91H498.536V2016H476.081V1978.59H439.4V2016H416.9ZM542.83 1922.91V2016H520.33V1922.91H542.83ZM564.635 2016V1922.91H587.135V1997.73H625.862V2016H564.635ZM666.576 2016H642.394L673.803 1922.91H703.758L735.167 2016H710.985L689.121 1946.36H688.394L666.576 2016ZM663.349 1979.36H713.894V1996.45H663.349V1979.36ZM787.279 2016H752.87V1922.91H787.233C796.718 1922.91 804.885 1924.77 811.733 1928.5C818.612 1932.2 823.915 1937.53 827.642 1944.5C831.37 1951.44 833.233 1959.74 833.233 1969.41C833.233 1979.11 831.37 1987.44 827.642 1994.41C823.945 2001.38 818.657 2006.73 811.779 2010.45C804.9 2014.15 796.733 2016 787.279 2016ZM775.37 1996.82H786.415C791.627 1996.82 796.036 1995.94 799.642 1994.18C803.279 1992.39 806.021 1989.5 807.87 1985.5C809.748 1981.47 810.688 1976.11 810.688 1969.41C810.688 1962.71 809.748 1957.38 807.87 1953.41C805.991 1949.41 803.218 1946.53 799.551 1944.77C795.915 1942.98 791.43 1942.09 786.097 1942.09H775.37V1996.82ZM854.05 2016V1922.91H918.959V1941.18H876.55V1960.27H915.64V1978.59H876.55V1997.73H918.959V2016H854.05ZM940.73 2016V1922.91H963.23V1997.73H1001.96V2016H940.73ZM1021.28 2016V1922.91H1059.74C1066.71 1922.91 1072.72 1924.27 1077.78 1927C1082.88 1929.7 1086.8 1933.47 1089.56 1938.32C1092.31 1943.14 1093.69 1948.74 1093.69 1955.14C1093.69 1961.56 1092.28 1967.18 1089.47 1972C1086.68 1976.79 1082.69 1980.5 1077.51 1983.14C1072.33 1985.77 1066.18 1987.09 1059.06 1987.09H1035.33V1969.36H1054.88C1058.27 1969.36 1061.1 1968.77 1063.38 1967.59C1065.68 1966.41 1067.42 1964.76 1068.6 1962.64C1069.78 1960.48 1070.38 1957.98 1070.38 1955.14C1070.38 1952.26 1069.78 1949.77 1068.6 1947.68C1067.42 1945.56 1065.68 1943.92 1063.38 1942.77C1061.07 1941.62 1058.24 1941.05 1054.88 1941.05H1043.78V2016H1021.28ZM1112.46 2016V1922.91H1134.96V1960.27H1171.65V1922.91H1194.1V2016H1171.65V1978.59H1134.96V2016H1112.46ZM1238.39 1922.91V2016H1215.89V1922.91H1238.39ZM1280.34 2016H1256.15L1287.56 1922.91H1317.52L1348.93 2016H1324.74L1302.88 1946.36H1302.15L1280.34 2016ZM1277.11 1979.36H1327.65V1996.45H1277.11V1979.36ZM1389.31 2003.27L1388.9 2008.32C1388.54 2012.5 1387.8 2016.58 1386.68 2020.55C1385.58 2024.55 1384.42 2028.14 1383.18 2031.32C1381.93 2034.5 1380.95 2036.97 1380.22 2038.73H1366.22C1366.71 2036.97 1367.36 2034.5 1368.18 2031.32C1369.02 2028.14 1369.81 2024.55 1370.54 2020.55C1371.27 2016.55 1371.68 2012.48 1371.77 2008.36L1371.86 2003.27H1389.31ZM1443.36 2016V1922.91H1481.82C1488.79 1922.91 1494.8 1924.27 1499.86 1927C1504.96 1929.7 1508.88 1933.47 1511.64 1938.32C1514.39 1943.14 1515.77 1948.74 1515.77 1955.14C1515.77 1961.56 1514.36 1967.18 1511.55 1972C1508.76 1976.79 1504.77 1980.5 1499.59 1983.14C1494.41 1985.77 1488.26 1987.09 1481.14 1987.09H1457.41V1969.36H1476.96C1480.35 1969.36 1483.18 1968.77 1485.46 1967.59C1487.76 1966.41 1489.5 1964.76 1490.68 1962.64C1491.86 1960.48 1492.46 1957.98 1492.46 1955.14C1492.46 1952.26 1491.86 1949.77 1490.68 1947.68C1489.5 1945.56 1487.76 1943.92 1485.46 1942.77C1483.15 1941.62 1480.32 1941.05 1476.96 1941.05H1465.86V2016H1443.36ZM1543.43 2016H1519.25L1550.66 1922.91H1580.61L1612.02 2016H1587.84L1565.98 1946.36H1565.25L1543.43 2016ZM1540.2 1979.36H1590.75V1996.45H1540.2V1979.36Z" fill="#144E63"/>
<path d="M482.216 222.231L163.877 486.333C139.092 506.895 135.669 543.656 156.231 568.441L231.031 658.602C251.593 683.387 288.354 686.81 313.139 666.248L631.478 402.145C656.262 381.583 659.685 344.822 639.123 320.038L564.323 229.876C543.761 205.092 507 201.669 482.216 222.231Z" fill="white" stroke="white" stroke-width="40"/>
<path d="M198.015 503.626L493.145 254.646C503.895 245.576 520.255 246.596 529.705 256.916L615.715 350.936C625.155 361.256 624.095 376.976 613.355 386.046L318.235 635.026C307.485 644.096 291.125 643.076 281.675 632.756L195.665 538.736C186.225 528.416 187.285 512.696 198.025 503.626H198.015Z" fill="#1C4655"/>
<path d="M887.736 582.965C827.326 561.755 802.276 544.295 785.416 529.165C774.616 519.475 777.626 520.115 765.966 509.715C731.896 479.355 717.646 484.065 686.636 456.835C674.256 445.965 670.846 440.225 650.146 422.645C638.576 412.815 632.786 407.905 626.476 403.785C599.006 385.875 570.826 382.735 552.246 380.675C550.096 380.435 525.766 377.175 502.406 380.675C393.236 397.045 344.476 485.275 344.476 485.275C344.476 485.275 299.586 570.225 346.156 674.805C352.696 689.485 361.036 703.255 361.036 703.255C377.106 729.765 392.606 744.405 405.586 758.885C418.626 773.435 436.156 795.705 453.256 827.735C477.516 882.045 492.886 922.535 494.106 928.245C495.236 933.545 496.296 939.185 496.296 939.185C496.296 939.185 496.756 941.615 497.176 943.995C499.206 955.495 499.366 975.515 499.366 975.515C499.396 978.745 499.676 1013.67 513.706 1018.98C517.346 1020.36 527.356 1016.9 547.216 1009.92C550.816 1008.65 554.716 1007.25 556.076 1006.73C672.896 962.435 771.366 882.665 771.366 882.665C797.936 861.145 854.426 812.635 909.476 737.755C942.996 692.165 981.386 639.725 964.196 610.735C956.996 598.595 948.106 604.125 887.756 582.945L887.736 582.965Z" fill="white"/>
<path d="M777.803 786.105L721.284 842.624C714.024 849.884 714.024 861.654 721.284 868.914L781.989 929.619C789.249 936.879 801.019 936.879 808.279 929.619L864.798 873.1C872.058 865.84 872.058 854.07 864.798 846.81L804.093 786.105C796.833 778.845 785.063 778.845 777.803 786.105Z" fill="white"/>
<path d="M773.91 809.449L749.334 833.132C741.941 840.256 741.724 852.025 748.848 859.418L781.989 893.808C789.113 901.201 800.882 901.419 808.275 894.295L832.85 870.612C840.243 863.487 840.461 851.719 833.337 844.326L800.196 809.935C793.072 802.542 781.303 802.325 773.91 809.449Z" fill="#1C4655"/>
<path fill-rule="evenodd" clip-rule="evenodd" d="M389.196 683.585C361.946 649.015 348.006 604.295 353.746 557.355C365.376 462.235 453.376 393.995 550.296 404.925C597.146 410.205 637.516 433.025 665.396 465.935C717.566 520.125 832.746 614.155 943.356 622.875C944.416 629.165 845.186 861.915 529.876 980.515C537.146 939.515 519.116 822.805 388.836 684.015C388.866 683.945 388.986 683.805 389.196 683.575V683.585Z" fill="#1C5F78"/>
<path fill-rule="evenodd" clip-rule="evenodd" d="M574.466 751.686L633.026 824.766L741.636 878.566L724.186 911.606L611.786 855.926L607.986 854.046L605.376 850.786L544.196 774.446L574.466 751.686Z" fill="white"/>
</g>
<defs>
<clipPath id="clip0_321_93">
<rect width="2271.68" height="2060" fill="white"/>
</clipPath>
</defs>
</svg>
