<svg width="2272" height="2060" viewBox="0 0 2272 2060" fill="none" xmlns="http://www.w3.org/2000/svg">
<g clip-path="url(#clip0_613_76)">
<ellipse cx="1051.28" cy="1132.26" rx="740.562" ry="743.087" fill="white"/>
<path fill-rule="evenodd" clip-rule="evenodd" d="M1885.23 1895.21L1671.09 1681.08C1643.7 1653.68 1645.05 1607.92 1674.1 1578.87C1703.16 1549.81 1748.92 1548.46 1776.31 1575.86L1990.45 1789.99L1885.23 1895.21Z" fill="white"/>
<path fill-rule="evenodd" clip-rule="evenodd" d="M1992.27 1791.82L1776.95 2007.13C1749.2 2034.88 1703.64 2034.31 1675.19 2005.86C1646.74 1977.41 1646.17 1931.85 1673.92 1904.1L1889.24 1688.79L1992.27 1791.82Z" fill="white"/>
<path d="M297.695 1792.67C297.695 1754.01 329.035 1722.67 367.695 1722.67H1725.79C1747.88 1722.67 1765.79 1740.58 1765.79 1762.67V1834.99C1765.79 1857.08 1747.88 1874.99 1725.79 1874.99H367.695C329.035 1874.99 297.695 1843.65 297.695 1804.99V1792.67Z" fill="white"/>
<mask id="mask0_613_76" style="mask-type:alpha" maskUnits="userSpaceOnUse" x="378" y="442" width="1365" height="1389">
<path d="M1060.25 1800.1C700.722 1800.1 408.391 1503.44 408.391 1136.39C408.391 769.345 700.722 472.683 1060.25 472.683C1419.77 472.683 1712.1 769.345 1712.1 1136.39C1712.1 1503.44 1419.77 1800.1 1060.25 1800.1Z" stroke="#0C1A33" stroke-width="60"/>
</mask>
<g mask="url(#mask0_613_76)">
<path d="M1912.88 1898.75L1075.53 1898.75L1075.53 291.944L1912.88 291.944L1912.88 1898.75Z" fill="#144E63"/>
</g>
<path fill-rule="evenodd" clip-rule="evenodd" d="M1815.81 1763.75L1702.68 1650.63C1690.94 1638.89 1690.94 1619.85 1702.68 1608.11C1714.42 1596.37 1733.46 1596.37 1745.2 1608.11L1888.47 1751.38L1930.99 1793.9L1888.47 1836.42L1746.78 1978.11C1735.04 1989.85 1716 1989.85 1704.26 1978.11C1692.52 1966.37 1692.52 1947.33 1704.26 1935.59L1809.96 1829.89L1165.53 1829.89V1829.89H372.858C354.592 1829.89 339.784 1815.09 339.784 1796.83C339.784 1778.56 354.592 1763.76 372.858 1763.76H874.643C874.707 1763.75 874.771 1763.75 874.835 1763.75L874.911 1763.75L1815.81 1763.75Z" fill="#144E63"/>
<mask id="mask1_613_76" style="mask-type:alpha" maskUnits="userSpaceOnUse" x="330" y="1120" width="550" height="601">
<rect x="330.767" y="1120.4" width="549.158" height="600.266" fill="#D9D9D9"/>
</mask>
<g mask="url(#mask1_613_76)">
<path d="M1044.69 495.597C1404.6 495.597 1696.54 788.387 1696.54 1149.78C1696.54 1511.17 1404.6 1803.96 1044.69 1803.96C684.774 1803.96 392.832 1511.17 392.832 1149.78C392.832 788.387 684.774 495.597 1044.69 495.597Z" stroke="#144E63" stroke-width="60"/>
</g>
<circle cx="393.398" cy="1120.4" r="30.0634" fill="#144E63"/>
<rect x="754.277" y="1272.28" width="38.0803" height="66.1395" transform="rotate(-2.2393 754.277 1272.28)" fill="white"/>
<mask id="mask2_613_76" style="mask-type:alpha" maskUnits="userSpaceOnUse" x="428" y="513" width="1246" height="1246">
<circle cx="1051.22" cy="1136.37" r="622.312" transform="rotate(105.048 1051.22 1136.37)" fill="#09B3AD"/>
<circle cx="1051.22" cy="1136.37" r="622.312" transform="rotate(105.048 1051.22 1136.37)" fill="black" fill-opacity="0.2"/>
</mask>
<g mask="url(#mask2_613_76)">
<circle cx="1050.22" cy="1159.41" r="622.312" transform="rotate(105.048 1050.22 1159.41)" fill="#08B2E3"/>
<path d="M719.889 1317.84C675.051 1214.25 517.57 1198.39 444.433 1203.4C391.279 1245.56 303.037 1356.02 375.299 1460.55C481.63 1633.16 613.511 1620.63 666.16 1592.79C702.752 1544.3 764.726 1421.42 719.889 1317.84Z" fill="#09B3AD"/>
<path d="M719.889 1317.84C675.051 1214.25 517.57 1198.39 444.433 1203.4C391.279 1245.56 303.037 1356.02 375.299 1460.55C481.63 1633.16 613.511 1620.63 666.16 1592.79C702.752 1544.3 764.726 1421.42 719.889 1317.84Z" fill="black" fill-opacity="0.2"/>
<path fill-rule="evenodd" clip-rule="evenodd" d="M697.097 1468.28C710.548 1422.03 713.543 1372.55 694.597 1328.78C676.885 1287.86 635.641 1261.57 584.83 1246.28C538.624 1232.38 489.099 1229.07 454.991 1230.43C431.995 1250.24 404.045 1282.35 388.168 1319.43C371.198 1359.08 368.556 1402.34 397.967 1444.88L398.38 1445.48L398.761 1446.1C448.967 1527.6 503.285 1562.56 548.367 1575.32C590.427 1587.23 626.622 1580.49 647.95 1571.01C664.042 1548.34 684.67 1511.01 697.097 1468.28ZM750.021 1483.67C734.522 1536.96 708.239 1582.77 688.156 1609.39L684.463 1614.28L679.042 1617.15C646.661 1634.27 593.24 1645.31 533.351 1628.35C472.882 1611.23 408.247 1566.32 352.208 1475.61C309.813 1413.81 315.2 1349.83 337.5 1297.74C359.42 1246.54 398.153 1204.93 427.306 1181.81L434.01 1176.49L442.547 1175.91C481.687 1173.22 542.772 1176.07 600.715 1193.5C658.138 1210.79 718.053 1244.22 745.178 1306.89C771.07 1366.7 765.496 1430.46 750.021 1483.67Z" fill="white"/>
<path d="M1495.91 893.981C1546.85 858.503 1539.31 796.737 1529.17 770.289C1577.12 783.18 1687.91 945.598 1710.29 1046.93C1738.32 1330.93 1627.05 1518.31 1567.91 1576.5C1508.94 1555.26 1441.67 1521.95 1417.06 1457.11C1392.45 1392.26 1435.97 1369.58 1440.23 1257.5C1444.49 1145.42 1148.12 1153.09 1167.34 1009.45C1186.55 865.804 1432.25 938.328 1495.91 893.981Z" fill="#09B3AD"/>
<path d="M1495.91 893.981C1546.85 858.503 1539.31 796.737 1529.17 770.289C1577.12 783.18 1687.91 945.598 1710.29 1046.93C1738.32 1330.93 1627.05 1518.31 1567.91 1576.5C1508.94 1555.26 1441.67 1521.95 1417.06 1457.11C1392.45 1392.26 1435.97 1369.58 1440.23 1257.5C1444.49 1145.42 1148.12 1153.09 1167.34 1009.45C1186.55 865.804 1432.25 938.328 1495.91 893.981Z" fill="black" fill-opacity="0.2"/>
<path fill-rule="evenodd" clip-rule="evenodd" d="M1737.71 1044.22C1766.53 1336.21 1652.54 1531.9 1587.24 1596.14L1574.88 1608.3L1558.57 1602.43C1499.47 1581.13 1420.7 1544.38 1391.29 1466.89C1383.88 1447.37 1381.27 1429.98 1382.18 1412.87C1383.05 1396.34 1387.18 1381.22 1391.42 1367.1C1392.25 1364.32 1393.11 1361.52 1393.98 1358.68C1401.91 1332.75 1410.91 1303.35 1412.69 1256.45C1413.19 1243.23 1405.88 1230.33 1381.78 1214.84C1360.97 1201.45 1333.84 1190.11 1303.2 1177.3C1298.04 1175.15 1292.79 1172.95 1287.45 1170.7C1252.27 1155.84 1213.33 1138.4 1184.64 1114.05C1154.48 1088.46 1133.66 1053.35 1140.02 1005.79C1146.13 960.119 1171.21 930.465 1204.98 912.664C1236.94 895.813 1276.18 889.742 1312.9 886.996C1331.58 885.599 1350.47 885.021 1368.36 884.579C1371.49 884.501 1374.58 884.428 1377.64 884.356C1392.27 884.01 1406.03 883.685 1418.98 883.011C1434.65 882.195 1448.02 880.912 1458.96 878.749C1470.18 876.529 1476.71 873.773 1480.16 871.368C1498.14 858.846 1505.77 842.093 1508.15 824.964C1510.63 807.041 1507.09 789.689 1503.44 780.152L1484.07 729.627L1536.32 743.675C1547.38 746.648 1557.71 753.063 1566.56 759.848C1575.78 766.912 1585.25 775.834 1594.64 785.842C1613.45 805.88 1633.43 831.856 1652.27 860.185C1689.56 916.274 1724.95 985.51 1737.2 1040.98L1737.55 1042.58L1737.71 1044.22ZM1683.03 1051.31C1672.55 1005.6 1641.65 943.77 1606.37 890.701C1591.67 868.592 1576.65 848.683 1562.72 832.704C1558.63 861.893 1544.56 893.683 1511.66 916.594C1499.2 925.276 1484.13 929.954 1469.65 932.817C1454.89 935.738 1438.47 937.187 1421.85 938.052C1408.04 938.771 1393.33 939.118 1378.68 939.463C1375.69 939.534 1372.7 939.605 1369.72 939.678C1351.92 940.118 1334.22 940.672 1317.01 941.959C1281.94 944.581 1252.18 950.083 1230.68 961.419C1210.98 971.805 1198.15 986.95 1194.65 1013.1C1191.41 1037.36 1200.43 1055.16 1220.3 1072.03C1241.64 1090.14 1272.92 1104.73 1308.89 1119.92C1313.73 1121.96 1318.67 1124.02 1323.67 1126.11C1353.89 1138.71 1386.31 1152.22 1411.59 1168.48C1441.26 1187.56 1469.39 1215.73 1467.77 1258.54C1465.7 1312.8 1454.86 1348.15 1446.71 1374.72C1445.84 1377.56 1445.01 1380.29 1444.21 1382.93C1440.11 1396.6 1437.71 1406.31 1437.22 1415.78C1436.75 1424.66 1437.92 1434.42 1442.82 1447.33C1460.72 1494.5 1507.99 1523.41 1560.35 1544.19C1615.85 1479.56 1707.82 1307.26 1683.03 1051.31Z" fill="white"/>
<path fill-rule="evenodd" clip-rule="evenodd" d="M488.956 985.204C405.471 1295.73 589.527 1615.14 900.056 1698.63C1210.59 1782.11 1530 1598.06 1613.48 1287.53C1696.97 976.998 1512.91 657.587 1202.38 574.103C891.851 490.618 572.44 674.675 488.956 985.204ZM450.246 974.797C361.013 1306.7 557.741 1648.11 889.649 1737.34C1221.56 1826.57 1562.96 1629.84 1652.19 1297.93C1741.42 966.027 1544.7 624.625 1212.79 535.393C880.879 446.161 539.478 642.889 450.246 974.797Z" fill="white"/>
</g>
<circle cx="1082.35" cy="473.033" r="30.0634" fill="#144E63"/>
<mask id="mask3_613_76" style="mask-type:alpha" maskUnits="userSpaceOnUse" x="320" y="346" width="1246" height="1246">
<circle cx="942.992" cy="969.014" r="622.312" transform="rotate(105.048 942.992 969.014)" fill="#08B2E3"/>
</mask>
<g mask="url(#mask3_613_76)">
<circle opacity="0.2" cx="1050.22" cy="1170.44" r="622.312" transform="rotate(105.048 1050.22 1170.44)" fill="white"/>
</g>
<path d="M1193.21 283.398L1196.75 267.607L1236.38 246.022C1239.37 244.331 1241.94 242.75 1244.11 241.277C1246.27 239.776 1248.03 238.181 1249.37 236.494C1250.72 234.778 1251.64 232.796 1252.15 230.548C1252.71 228.035 1252.64 225.768 1251.95 223.749C1251.26 221.7 1250.06 219.973 1248.36 218.566C1246.65 217.16 1244.56 216.178 1242.07 215.622C1239.56 215.059 1237.24 215.083 1235.12 215.694C1233 216.275 1231.19 217.408 1229.7 219.091C1228.23 220.781 1227.19 223.002 1226.58 225.752L1205.77 221.091C1207.16 214.911 1209.74 209.885 1213.53 206.013C1217.32 202.141 1222 199.556 1227.57 198.257C1233.17 196.936 1239.32 197.024 1246 198.521C1252.89 200.064 1258.62 202.559 1263.19 206.005C1267.76 209.451 1270.97 213.555 1272.82 218.317C1274.71 223.057 1275.04 228.147 1273.82 233.588C1273.05 237.048 1271.59 240.322 1269.43 243.412C1267.28 246.501 1263.94 249.696 1259.41 252.998C1254.92 256.307 1248.73 260.091 1240.85 264.35L1227.73 271.94L1227.61 272.517L1264.42 280.764L1260.46 298.462L1193.21 283.398Z" fill="#144E63"/>
<path d="M1312.45 317.141C1304.74 314.563 1298.72 310.515 1294.37 305C1290.02 299.455 1287.49 292.744 1286.77 284.866C1286.07 276.959 1287.35 268.169 1290.62 258.495C1293.89 248.821 1298.15 241.107 1303.4 235.355C1308.69 229.584 1314.7 225.86 1321.43 224.182C1328.19 222.486 1335.43 222.927 1343.13 225.505C1350.83 228.084 1356.87 232.088 1361.25 237.517C1365.67 242.928 1368.26 249.529 1369 257.321C1369.75 265.112 1368.49 273.831 1365.23 283.476C1361.98 293.189 1357.69 300.988 1352.36 306.874C1347.04 312.76 1340.97 316.595 1334.18 318.378C1327.42 320.141 1320.18 319.729 1312.45 317.141ZM1318.29 299.685C1322.89 301.224 1327.39 300.128 1331.81 296.397C1336.23 292.637 1340.06 285.881 1343.29 276.13C1345.43 269.751 1346.54 264.276 1346.63 259.705C1346.73 255.106 1345.98 251.401 1344.36 248.591C1342.75 245.781 1340.4 243.862 1337.33 242.832C1332.76 241.302 1328.29 242.379 1323.93 246.063C1319.57 249.717 1315.78 256.31 1312.56 265.84C1310.36 272.296 1309.19 277.862 1309.03 282.538C1308.9 287.224 1309.64 291.005 1311.27 293.882C1312.9 296.731 1315.24 298.665 1318.29 299.685Z" fill="#144E63"/>
<path d="M1366.07 333.872L1372.75 319.135L1415.95 306.087C1419.22 305.041 1422.06 304.018 1424.48 303.018C1426.91 301.99 1428.95 300.787 1430.61 299.409C1432.28 298.003 1433.59 296.252 1434.54 294.154C1435.6 291.809 1436 289.576 1435.73 287.457C1435.47 285.311 1434.65 283.375 1433.27 281.651C1431.89 279.927 1430.04 278.539 1427.72 277.488C1425.38 276.424 1423.1 275.974 1420.9 276.139C1418.71 276.276 1416.71 277.016 1414.9 278.36C1413.12 279.715 1411.65 281.677 1410.49 284.243L1391.07 275.438C1393.69 269.67 1397.24 265.277 1401.74 262.259C1406.24 259.24 1411.34 257.664 1417.06 257.529C1422.82 257.378 1428.82 258.718 1435.05 261.546C1441.48 264.463 1446.59 268.074 1450.36 272.379C1454.13 276.685 1456.43 281.357 1457.27 286.398C1458.16 291.423 1457.45 296.474 1455.14 301.552C1453.68 304.781 1451.58 307.688 1448.84 310.273C1446.1 312.859 1442.18 315.306 1437.08 317.615C1432 319.936 1425.17 322.379 1416.58 324.941L1402.2 329.697L1401.95 330.235L1436.31 345.818L1428.82 362.335L1366.07 333.872Z" fill="#144E63"/>
<path d="M1450.52 356.095L1459.29 340.899L1522.36 307.917L1535.87 315.711L1523.96 336.34L1516.12 331.818L1479.12 351.29L1478.75 351.92L1526.59 379.527L1517.73 394.88L1450.52 356.095ZM1481.73 391.951L1492.14 373.921L1496.37 367.495L1528.66 311.553L1546.89 322.073L1500.35 402.699L1481.73 391.951Z" fill="#144E63"/>
<path d="M1653.53 431.646C1655.33 428.829 1655.86 425.956 1655.1 423.027C1654.39 420.093 1652.3 417.277 1648.83 414.58C1646.54 412.794 1644.39 411.605 1642.39 411.012C1640.4 410.42 1638.61 410.352 1637.02 410.81C1635.46 411.243 1634.14 412.12 1633.08 413.441C1632.17 414.504 1631.64 415.641 1631.46 416.85C1631.31 418.078 1631.46 419.377 1631.89 420.749C1632.36 422.115 1633.08 423.558 1634.05 425.078C1635.01 426.598 1636.2 428.189 1637.59 429.85L1642.79 436.196C1645.81 439.813 1648.2 443.358 1649.95 446.832C1651.73 450.324 1652.85 453.714 1653.33 457.001C1653.83 460.307 1653.65 463.526 1652.79 466.657C1651.93 469.788 1650.36 472.834 1648.1 475.795C1644.47 480.417 1640.2 483.488 1635.29 485.009C1630.39 486.53 1625.07 486.482 1619.34 484.867C1613.63 483.27 1607.72 480.091 1601.59 475.328C1595.44 470.548 1590.8 465.46 1587.67 460.065C1584.53 454.67 1583.15 449.109 1583.54 443.381C1583.92 437.654 1586.31 431.892 1590.7 426.095L1607.71 439.321C1606.01 441.801 1605.11 444.267 1605.01 446.72C1604.91 449.173 1605.52 451.569 1606.85 453.908C1608.2 456.265 1610.18 458.458 1612.79 460.485C1615.18 462.345 1617.47 463.604 1619.64 464.26C1621.84 464.935 1623.84 465.052 1625.65 464.61C1627.45 464.169 1628.94 463.216 1630.12 461.751C1631.17 460.345 1631.66 458.826 1631.59 457.195C1631.53 455.539 1630.91 453.673 1629.72 451.598C1628.57 449.517 1626.9 447.123 1624.71 444.418L1618.42 436.653C1613.2 430.245 1610.02 423.992 1608.89 417.892C1607.78 411.769 1609.4 405.93 1613.76 400.375C1617.27 395.811 1621.58 392.777 1626.71 391.272C1631.83 389.767 1637.32 389.751 1643.16 391.223C1649 392.695 1654.71 395.598 1660.28 399.932C1665.97 404.359 1670.16 409.169 1672.84 414.362C1675.56 419.55 1676.73 424.781 1676.36 430.054C1675.98 435.327 1674.04 440.266 1670.53 444.872L1653.53 431.646Z" fill="#144E63"/>
<path d="M1689.83 449.064L1702.57 435.958L1759 490.785L1746.27 503.891L1726.02 484.221L1673.89 537.885L1657.98 522.428L1710.11 468.765L1689.83 449.064Z" fill="#144E63"/>
<path d="M1705.46 576.971L1690.05 558.336L1781.81 523.215L1800.9 546.299L1749.18 629.829L1733.76 611.194L1773.5 549.967L1773.03 549.407L1705.46 576.971ZM1731.64 551.136L1763.85 590.088L1750.68 600.98L1718.47 562.028L1731.64 551.136Z" fill="#144E63"/>
<path d="M1756.98 644.559L1834.48 592.989L1855.79 625.003C1859.65 630.806 1861.85 636.569 1862.38 642.293C1862.95 648.025 1861.99 653.382 1859.48 658.364C1856.99 663.329 1853.09 667.582 1847.77 671.125C1842.42 674.684 1836.96 676.624 1831.39 676.947C1825.86 677.279 1820.56 676.018 1815.49 673.164C1810.43 670.311 1805.92 665.92 1801.98 659.991L1788.83 640.237L1803.59 630.417L1814.42 646.689C1816.3 649.515 1818.36 651.546 1820.6 652.783C1822.86 654.046 1825.2 654.582 1827.62 654.391C1830.07 654.183 1832.48 653.29 1834.85 651.712C1837.25 650.117 1838.99 648.248 1840.07 646.106C1841.19 643.947 1841.58 641.59 1841.27 639.035C1840.95 636.479 1839.86 633.802 1837.99 631.001L1831.85 621.768L1769.45 663.291L1756.98 644.559Z" fill="#144E63"/>
<path d="M1897.24 693.372L1814.34 735.722L1804.1 715.685L1887 673.335L1897.24 693.372Z" fill="#144E63"/>
<path d="M1913.35 838.472C1916.49 837.314 1918.64 835.338 1919.8 832.546C1921 829.776 1921.03 826.269 1919.89 822.026C1919.14 819.217 1918.14 816.974 1916.91 815.298C1915.67 813.622 1914.28 812.489 1912.74 811.899C1911.23 811.301 1909.66 811.208 1908.01 811.619C1906.65 811.923 1905.53 812.505 1904.67 813.365C1903.81 814.255 1903.14 815.377 1902.65 816.731C1902.21 818.106 1901.91 819.692 1901.77 821.488C1901.62 823.284 1901.61 825.266 1901.72 827.432L1902.04 835.63C1902.27 840.337 1902.04 844.605 1901.34 848.432C1900.65 852.289 1899.51 855.672 1897.91 858.582C1896.31 861.522 1894.23 863.981 1891.65 865.96C1889.08 867.939 1886 869.427 1882.4 870.424C1876.72 871.922 1871.46 871.798 1866.63 870.054C1861.8 868.31 1857.58 865.066 1853.99 860.322C1850.4 855.608 1847.59 849.505 1845.58 842.014C1843.56 834.493 1842.92 827.635 1843.67 821.44C1844.42 815.245 1846.67 809.978 1850.43 805.641C1854.19 801.303 1859.57 798.146 1866.57 796.169L1872.17 816.975C1869.32 817.93 1867.11 819.355 1865.55 821.25C1863.99 823.144 1863.04 825.425 1862.69 828.093C1862.35 830.789 1862.6 833.732 1863.46 836.922C1864.25 839.848 1865.31 842.229 1866.65 844.065C1868 845.93 1869.53 847.23 1871.23 847.964C1872.94 848.698 1874.7 848.836 1876.52 848.377C1878.21 847.892 1879.52 846.975 1880.44 845.628C1881.4 844.274 1882.02 842.41 1882.33 840.038C1882.67 837.687 1882.78 834.77 1882.66 831.288L1882.33 821.304C1882.02 813.04 1883.25 806.134 1886.03 800.587C1888.83 795.031 1893.65 791.351 1900.47 789.546C1906.02 788.022 1911.3 788.204 1916.29 790.092C1921.29 791.981 1925.67 795.273 1929.45 799.969C1933.22 804.666 1936.02 810.423 1937.86 817.241C1939.73 824.206 1940.17 830.567 1939.18 836.326C1938.22 842.106 1936 846.986 1932.52 850.965C1929.05 854.945 1924.52 857.716 1918.95 859.278L1913.35 838.472Z" fill="#144E63"/>
<path d="M1859.49 892.688L1951.36 877.646L1957.57 915.596C1958.7 922.474 1958.32 928.63 1956.45 934.065C1954.61 939.525 1951.52 944.007 1947.18 947.512C1942.87 951.012 1937.56 953.278 1931.25 954.311C1924.91 955.349 1919.14 954.867 1913.93 952.864C1908.75 950.887 1904.45 947.554 1901.01 942.866C1897.57 938.179 1895.27 932.321 1894.12 925.293L1890.29 901.878L1907.78 899.013L1910.94 918.302C1911.49 921.651 1912.53 924.352 1914.06 926.404C1915.6 928.486 1917.51 929.938 1919.8 930.762C1922.11 931.581 1924.67 931.76 1927.49 931.299C1930.33 930.834 1932.68 929.85 1934.56 928.346C1936.46 926.836 1937.79 924.853 1938.56 922.394C1939.32 919.935 1939.43 917.046 1938.89 913.726L1937.09 902.781L1863.12 914.892L1859.49 892.688Z" fill="#144E63"/>
<path d="M1872.81 979.358L1965.72 973.606L1968.1 1011.99C1968.53 1018.94 1967.65 1025.02 1965.45 1030.23C1963.28 1035.47 1959.96 1039.6 1955.47 1042.64C1951.01 1045.68 1945.61 1047.4 1939.26 1047.79C1932.81 1048.19 1927.25 1047.12 1922.57 1044.59C1917.92 1042.05 1914.26 1038.27 1911.58 1033.25C1908.93 1028.22 1907.38 1022.17 1906.95 1015.09L1905.44 990.818L1923.14 989.723L1924.38 1009.82C1924.59 1013.21 1925.21 1016.01 1926.22 1018.22C1927.27 1020.47 1928.74 1022.12 1930.63 1023.19C1932.55 1024.25 1934.94 1024.7 1937.82 1024.52C1940.69 1024.34 1943.03 1023.6 1944.83 1022.31C1946.66 1021.01 1947.98 1019.18 1948.77 1016.83C1949.6 1014.47 1949.9 1011.61 1949.7 1008.25L1949.01 997.184L1874.2 1001.82L1872.81 979.358ZM1918.51 1029.04L1877.48 1054.8L1875.96 1030.31L1917.02 1004.99L1918.51 1029.04Z" fill="#144E63"/>
<path d="M1969.57 1091.95L1876.48 1090.81L1876.76 1068.31L1969.84 1069.46L1969.57 1091.95Z" fill="#144E63"/>
<path d="M1962.15 1196.64L1869.45 1188.15L1871.19 1169.14L1928.07 1137.15L1928.13 1136.56L1874.62 1131.66L1876.68 1109.25L1969.38 1117.75L1967.61 1137.03L1910.86 1168.62L1910.79 1169.39L1964.2 1174.28L1962.15 1196.64Z" fill="#144E63"/>
<path d="M1943.38 1216L1961.1 1220.45L1941.96 1296.77L1924.24 1292.32L1931.11 1264.94L1858.54 1246.74L1863.93 1225.23L1936.5 1243.43L1943.38 1216Z" fill="#144E63"/>
<path d="M343.643 2020.03V1926.94H382.461C389.431 1926.94 395.264 1927.93 399.961 1929.9C404.688 1931.87 408.234 1934.63 410.597 1938.17C412.991 1941.72 414.188 1945.82 414.188 1950.49C414.188 1954.03 413.446 1957.2 411.961 1959.99C410.476 1962.75 408.431 1965.03 405.825 1966.85C403.219 1968.67 400.203 1969.94 396.779 1970.67V1971.58C400.537 1971.76 404.006 1972.78 407.188 1974.63C410.4 1976.47 412.976 1979.05 414.915 1982.35C416.855 1985.63 417.825 1989.5 417.825 1993.99C417.825 1998.99 416.552 2003.46 414.006 2007.4C411.461 2011.31 407.779 2014.4 402.961 2016.67C398.143 2018.91 392.294 2020.03 385.415 2020.03H343.643ZM366.143 2001.9H380.052C384.931 2001.9 388.522 2000.97 390.825 1999.13C393.158 1997.28 394.325 1994.7 394.325 1991.4C394.325 1989 393.764 1986.94 392.643 1985.22C391.522 1983.46 389.931 1982.11 387.87 1981.17C385.809 1980.2 383.34 1979.72 380.461 1979.72H366.143V2001.9ZM366.143 1965.22H378.597C381.052 1965.22 383.234 1964.81 385.143 1963.99C387.052 1963.17 388.537 1961.99 389.597 1960.44C390.688 1958.9 391.234 1957.03 391.234 1954.85C391.234 1951.73 390.128 1949.28 387.915 1947.49C385.703 1945.7 382.719 1944.81 378.961 1944.81H366.143V1965.22ZM436.323 2020.03V1926.94H501.232V1945.22H458.823V1964.31H497.914V1982.63H458.823V2001.76H501.232V2020.03H436.323ZM523.003 2020.03V1926.94H561.457C568.427 1926.94 574.442 1928.2 579.503 1930.72C584.594 1933.2 588.518 1936.78 591.275 1941.44C594.033 1946.08 595.412 1951.58 595.412 1957.94C595.412 1964.4 594.003 1969.88 591.185 1974.4C588.366 1978.88 584.366 1982.31 579.185 1984.67C574.003 1987 567.866 1988.17 560.775 1988.17H536.457V1970.44H556.594C559.988 1970.44 562.821 1970 565.094 1969.13C567.397 1968.22 569.139 1966.85 570.321 1965.03C571.503 1963.19 572.094 1960.82 572.094 1957.94C572.094 1955.06 571.503 1952.69 570.321 1950.81C569.139 1948.9 567.397 1947.47 565.094 1946.53C562.791 1945.56 559.957 1945.08 556.594 1945.08H545.503V2020.03H523.003ZM575.412 1977.49L598.594 2020.03H574.048L551.321 1977.49H575.412ZM615.433 2020.03V1926.94H637.933V2001.76H676.66V2020.03H615.433ZM718.488 1926.94V2020.03H695.988V1926.94H718.488ZM819.52 1926.94V2020.03H800.429L763.384 1966.31H762.793V2020.03H740.293V1926.94H759.656L796.293 1980.58H797.065V1926.94H819.52ZM864.03 2007.31L863.62 2012.35C863.257 2016.53 862.514 2020.61 861.393 2024.58C860.302 2028.58 859.136 2032.17 857.893 2035.35C856.651 2038.53 855.666 2041 854.939 2042.76H840.939C841.423 2041 842.075 2038.53 842.893 2035.35C843.742 2032.17 844.53 2028.58 845.257 2024.58C845.984 2020.58 846.393 2016.52 846.484 2012.4L846.575 2007.31H864.03ZM979.174 1957.35C978.659 1955.44 977.901 1953.76 976.901 1952.31C975.901 1950.82 974.674 1949.56 973.219 1948.53C971.765 1947.5 970.098 1946.73 968.219 1946.22C966.34 1945.67 964.28 1945.4 962.037 1945.4C957.522 1945.4 953.613 1946.49 950.31 1948.67C947.037 1950.85 944.507 1954.03 942.719 1958.22C940.931 1962.37 940.037 1967.41 940.037 1973.35C940.037 1979.32 940.901 1984.41 942.628 1988.63C944.355 1992.84 946.855 1996.05 950.128 1998.26C953.401 2000.47 957.371 2001.58 962.037 2001.58C966.159 2001.58 969.643 2000.91 972.492 1999.58C975.371 1998.22 977.552 1996.29 979.037 1993.81C980.522 1991.32 981.265 1988.4 981.265 1985.03L985.446 1985.53H962.81V1969.13H1002.95V1981.44C1002.95 1989.78 1001.17 1996.91 997.628 2002.85C994.113 2008.79 989.265 2013.35 983.083 2016.53C976.931 2019.72 969.855 2021.31 961.855 2021.31C952.977 2021.31 945.174 2019.38 938.446 2015.53C931.719 2011.69 926.477 2006.2 922.719 1999.08C918.962 1991.93 917.083 1983.44 917.083 1973.63C917.083 1965.99 918.219 1959.22 920.492 1953.31C922.765 1947.37 925.931 1942.34 929.992 1938.22C934.083 1934.09 938.81 1930.97 944.174 1928.85C949.568 1926.73 955.371 1925.67 961.583 1925.67C966.977 1925.67 971.992 1926.44 976.628 1927.99C981.295 1929.53 985.416 1931.72 988.992 1934.53C992.598 1937.35 995.522 1940.7 997.765 1944.58C1000.01 1948.46 1001.4 1952.72 1001.95 1957.35H979.174ZM1023.89 2020.03V1926.94H1088.8V1945.22H1046.39V1964.31H1085.48V1982.63H1046.39V2001.76H1088.8V2020.03H1023.89ZM1110.57 2020.03V1926.94H1149.02C1155.99 1926.94 1162.01 1928.2 1167.07 1930.72C1172.16 1933.2 1176.08 1936.78 1178.84 1941.44C1181.6 1946.08 1182.98 1951.58 1182.98 1957.94C1182.98 1964.4 1181.57 1969.88 1178.75 1974.4C1175.93 1978.88 1171.93 1982.31 1166.75 1984.67C1161.57 1987 1155.43 1988.17 1148.34 1988.17H1124.02V1970.44H1144.16C1147.55 1970.44 1150.39 1970 1152.66 1969.13C1154.96 1968.22 1156.7 1966.85 1157.89 1965.03C1159.07 1963.19 1159.66 1960.82 1159.66 1957.94C1159.66 1955.06 1159.07 1952.69 1157.89 1950.81C1156.7 1948.9 1154.96 1947.47 1152.66 1946.53C1150.36 1945.56 1147.52 1945.08 1144.16 1945.08H1133.07V2020.03H1110.57ZM1162.98 1977.49L1186.16 2020.03H1161.61L1138.89 1977.49H1162.98ZM1203 1926.94H1230.86L1254.5 1984.58H1255.59L1279.22 1926.94H1307.09V2020.03H1285.18V1962.85H1284.41L1262.04 2019.44H1248.04L1225.68 1962.53H1224.91V2020.03H1203V1926.94ZM1348.94 2020.03H1324.76L1356.17 1926.94H1386.12L1417.53 2020.03H1393.35L1371.48 1950.4H1370.76L1348.94 2020.03ZM1345.71 1983.4H1396.26V2000.49H1345.71V1983.4ZM1514.46 1926.94V2020.03H1495.37L1458.32 1966.31H1457.73V2020.03H1435.23V1926.94H1454.6L1491.23 1980.58H1492.01V1926.94H1514.46ZM1531.65 1926.94H1556.79L1576.47 1965.9H1577.29L1596.97 1926.94H1622.11L1588.06 1988.94V2020.03H1565.7V1988.94L1531.65 1926.94Z" fill="#144E63"/>
<g clip-path="url(#clip1_613_76)">
<path d="M918.476 843.733C918.599 842.878 918.681 842.016 918.681 841.161C918.681 830.987 911.079 822.196 900.781 820.89C889.58 819.501 879.363 827.43 877.934 838.663C874.458 866.248 862.032 891.952 843.03 911.039C824.967 929.1 801.757 940.95 775.885 945.246C764.759 947.087 757.163 957.712 759.087 968.747C760.969 979.824 771.458 987.424 782.577 985.543C816.871 979.864 847.779 964.088 871.926 939.938C897.346 914.433 913.857 880.266 918.475 843.732L918.476 843.733Z" fill="white" fill-opacity="0.7"/>
<path d="M968.268 847.758C964.916 894.062 944.724 937.949 911.304 971.337C877.495 1005.17 834.751 1024.83 787.736 1028.27C776.487 1029.08 768.16 1038.93 768.852 1050.13C769.659 1061.33 779.437 1069.79 790.639 1069.01C846.836 1064.89 899.96 1040.49 940.187 1000.19C980.49 959.856 1004.93 906.732 1008.97 850.625C1009.06 850.132 1009.06 849.647 1009.06 849.154C1009.06 838.529 1000.84 829.58 990.048 828.801C978.813 828.021 969.083 836.518 968.268 847.758Z" fill="white" fill-opacity="0.4"/>
<rect width="366.894" height="267.935" transform="matrix(0.732176 -0.681115 0.684885 0.728651 117.29 1040.53)" fill="#09B3AD"/>
<rect width="366.894" height="267.935" transform="matrix(0.732176 -0.681115 0.684885 0.728651 117.29 1040.53)" fill="black" fill-opacity="0.2"/>
<rect width="366.894" height="267.935" transform="matrix(0.732176 -0.681115 0.684885 0.728651 117.29 1040.53)" stroke="white" stroke-width="40"/>
<rect width="366.894" height="267.935" transform="matrix(0.732176 -0.681115 0.684885 0.728651 753.259 464.513)" fill="#09B3AD"/>
<rect width="366.894" height="267.935" transform="matrix(0.732176 -0.681115 0.684885 0.728651 753.259 464.513)" fill="black" fill-opacity="0.2"/>
<rect width="366.894" height="267.935" transform="matrix(0.732176 -0.681115 0.684885 0.728651 753.259 464.513)" stroke="white" stroke-width="40"/>
<rect x="346.482" y="819.477" width="79.4753" height="321.786" rx="27.5" transform="rotate(-42.842 346.482 819.477)" fill="#1C5F78" stroke="white" stroke-width="45"/>
<rect x="410.205" y="760.382" width="79.4753" height="321.786" rx="30.5" transform="rotate(-42.842 410.205 760.382)" fill="#1C5F78" stroke="white" stroke-width="45"/>
<rect x="473.927" y="701.287" width="79.4753" height="321.786" rx="30.5" transform="rotate(-42.842 473.927 701.287)" fill="#1C5F78" stroke="white" stroke-width="45"/>
<rect x="601.373" y="583.099" width="79.4753" height="321.786" rx="30.5" transform="rotate(-42.842 601.373 583.099)" fill="#1C5F78" stroke="white" stroke-width="45"/>
<rect x="-1.18572" y="31.7965" width="76.1871" height="654.387" rx="38.0936" transform="matrix(-0.680294 -0.732939 0.732993 -0.680237 329.708 891.973)" fill="#1C5F78" stroke="white" stroke-width="45" stroke-linejoin="round"/>
<rect x="-1.18569" y="31.7963" width="51.2803" height="679.641" rx="25.6402" transform="matrix(-0.680299 -0.732935 0.732996 -0.680233 298.936 877.269)" fill="#1C5F78" stroke="white" stroke-width="45"/>
<rect x="-1.18569" y="31.7963" width="51.0668" height="667.431" rx="25.5334" transform="matrix(-0.680299 -0.732935 0.732996 -0.680233 278.35 845.563)" fill="#1C5F78" stroke="white" stroke-width="45"/>
<rect x="665.095" y="524.004" width="79.4753" height="321.786" rx="30.5" transform="rotate(-42.842 665.095 524.004)" fill="#1C5F78" stroke="white" stroke-width="45"/>
<rect x="728.818" y="464.909" width="79.4753" height="321.786" rx="30.5" transform="rotate(-42.842 728.818 464.909)" fill="#1C5F78" stroke="white" stroke-width="45"/>
<rect x="484.907" y="532.162" width="25.1382" height="51.9785" transform="rotate(-42.842 484.907 532.162)" fill="#1C5F78"/>
<path d="M499.663 557.936C499.663 557.936 484.769 558.066 477.737 540.131L485.368 529.747L497.323 531.652L507.294 547.552L519.249 549.457C519.249 549.457 522.994 557.892 524.247 561.319C525.501 564.745 527.132 570.163 527.132 570.163C527.132 570.163 519.19 575.705 513.318 574.226C505.653 572.295 499.663 557.936 499.663 557.936Z" fill="#144E63"/>
<path d="M499.663 557.936C499.663 557.936 484.769 558.066 477.737 540.131L485.368 529.747L497.323 531.652L507.294 547.552M499.663 557.936L507.294 547.552M499.663 557.936C499.663 557.936 505.653 572.295 513.318 574.226C519.19 575.705 527.132 570.163 527.132 570.163C527.132 570.163 525.501 564.745 524.247 561.319C522.994 557.892 519.249 549.457 519.249 549.457L507.294 547.552" stroke="white" stroke-width="45"/>
<path d="M485.07 576.875C485.07 576.875 471.953 582.348 459.445 567.133L462.545 554.124L473.778 551.718L488.17 563.866L499.404 561.46C499.404 561.46 505.673 568.459 507.983 571.399C510.294 574.338 513.636 579.11 513.636 579.11C513.636 579.11 508.563 587.441 502.854 588.086C495.402 588.927 485.07 576.875 485.07 576.875Z" fill="#144E63"/>
<path d="M485.07 576.875C485.07 576.875 471.953 582.348 459.445 567.133L462.545 554.124L473.778 551.718L488.17 563.866M485.07 576.875L488.17 563.866M485.07 576.875C485.07 576.875 495.402 588.927 502.854 588.086C508.563 587.441 513.636 579.11 513.636 579.11C513.636 579.11 510.294 574.338 507.983 571.399C505.673 568.459 499.404 561.46 499.404 561.46L488.17 563.866" stroke="white" stroke-width="45"/>
<path d="M549.365 516.598C549.365 516.598 556.372 503.897 540.885 491.839L526.519 494.871L522.993 505.742L534.999 519.631L531.474 530.502C531.474 530.502 538.556 536.548 541.556 538.775C544.557 541.002 549.462 544.222 549.462 544.222C549.462 544.222 558.914 539.293 560.079 533.77C561.598 526.561 549.365 516.598 549.365 516.598Z" fill="#144E63"/>
<path d="M549.365 516.598C549.365 516.598 556.372 503.897 540.885 491.839L526.519 494.871L522.993 505.742L534.999 519.631M549.365 516.598L534.999 519.631M549.365 516.598C549.365 516.598 561.598 526.561 560.079 533.77C558.914 539.293 549.462 544.222 549.462 544.222C549.462 544.222 544.557 541.002 541.556 538.775C538.556 536.548 531.474 530.502 531.474 530.502L534.999 519.631" stroke="white" stroke-width="45"/>
<path d="M525.895 530.158C525.895 530.158 524.121 515.265 506.372 509.613L497.585 518.034L500.897 529.834L517.108 538.579L520.42 550.379C520.42 550.379 528.824 553.474 532.203 554.464C535.583 555.454 540.882 556.669 540.882 556.669C540.882 556.669 545.079 548.309 542.941 542.554C540.151 535.043 525.895 530.158 525.895 530.158Z" fill="#144E63"/>
<path d="M525.895 530.158C525.895 530.158 524.121 515.265 506.372 509.613L497.585 518.034L500.897 529.834L517.108 538.579M525.895 530.158L517.108 538.579M525.895 530.158C525.895 530.158 540.151 535.043 542.941 542.554C545.079 548.309 540.882 556.669 540.882 556.669C540.882 556.669 535.583 555.454 532.203 554.464C528.824 553.474 520.42 550.379 520.42 550.379L517.108 538.579" stroke="white" stroke-width="45"/>
<path d="M467.444 517.006C467.444 517.006 474.079 517.523 481.807 513.402L481.041 510.633L475.202 510.705L466.678 514.237L460.839 514.309C460.839 514.309 457.009 516.233 455.572 517.024C454.136 517.814 454.053 518.433 454.053 518.433C454.053 518.433 454.163 520.679 457.17 520.512C461.095 520.294 467.444 517.006 467.444 517.006Z" fill="#144E63"/>
<path d="M467.444 517.006C467.444 517.006 474.079 517.523 481.807 513.402L481.041 510.633L475.202 510.705L466.678 514.237M467.444 517.006L466.678 514.237M467.444 517.006C467.444 517.006 461.095 520.294 457.17 520.512C454.163 520.679 454.053 518.433 454.053 518.433C454.053 518.433 454.136 517.814 455.572 517.024C457.009 516.233 460.839 514.309 460.839 514.309L466.678 514.237" stroke="white" stroke-width="45"/>
<path d="M489.229 496.572C489.229 496.572 490.929 502.305 489.019 510.943L486.593 511.405L485.531 506.141L486.802 497.034L485.741 491.77C485.741 491.77 486.589 487.538 486.964 485.922C487.339 484.307 487.832 483.976 487.832 483.976C487.832 483.976 489.703 483.143 490.143 485.907C490.717 489.516 489.229 496.572 489.229 496.572Z" fill="#144E63"/>
<path d="M489.229 496.572C489.229 496.572 490.929 502.305 489.019 510.943L486.593 511.405L485.531 506.141L486.802 497.034M489.229 496.572L486.802 497.034M489.229 496.572C489.229 496.572 490.717 489.516 490.143 485.907C489.703 483.143 487.832 483.976 487.832 483.976C487.832 483.976 487.339 484.307 486.964 485.922C486.589 487.538 485.741 491.77 485.741 491.77L486.802 497.034" stroke="white" stroke-width="45"/>
<path d="M484.754 514.289C484.754 514.289 481.723 508.194 474.187 503.139L472.24 505.013L475.354 510.148L482.806 516.163L485.92 521.299C485.92 521.299 489.555 523.856 490.976 524.785C492.398 525.714 494.572 527.039 494.572 527.039C494.572 527.039 494.813 524.451 493.099 521.863C490.861 518.484 484.754 514.289 484.754 514.289Z" fill="#144E63"/>
<path d="M484.754 514.289C484.754 514.289 481.723 508.194 474.187 503.139L472.24 505.013L475.354 510.148L482.806 516.163M484.754 514.289L482.806 516.163M484.754 514.289C484.754 514.289 490.861 518.484 493.099 521.863C494.813 524.451 494.572 527.039 494.572 527.039C494.572 527.039 492.398 525.714 490.976 524.785C489.555 523.856 485.92 521.299 485.92 521.299L482.806 516.163" stroke="white" stroke-width="45"/>
<rect x="378.279" y="820.675" width="34.4753" height="276.786" rx="8" transform="rotate(-42.842 378.279 820.675)" fill="#1C5F78"/>
<rect x="442.002" y="761.58" width="34.4753" height="276.786" rx="8" transform="rotate(-42.842 442.002 761.58)" fill="#1C5F78"/>
<rect x="505.725" y="702.485" width="34.4753" height="276.786" rx="8" transform="rotate(-42.842 505.725 702.485)" fill="#1C5F78"/>
<rect x="633.17" y="584.297" width="34.4753" height="276.786" rx="8" transform="rotate(-42.842 633.17 584.297)" fill="#1C5F78"/>
<rect width="31.1871" height="609.387" rx="8" transform="matrix(-0.680294 -0.732939 0.732993 -0.680237 355.007 839.415)" fill="#1C5F78"/>
<rect width="6.2803" height="634.641" rx="3.14015" transform="matrix(-0.680307 -0.732927 0.733002 -0.680226 324.235 824.713)" fill="#1C5F78"/>
<rect width="30.1267" height="597.663" rx="8" transform="matrix(-0.680299 -0.732935 0.732996 -0.680233 333.508 807.083)" fill="#1C5F78"/>
<rect width="6.06675" height="622.431" rx="3.03338" transform="matrix(-0.680299 -0.732935 0.732996 -0.680233 303.646 793.006)" fill="#1C5F78"/>
<rect width="49.0275" height="207.534" rx="8" transform="matrix(-0.680299 -0.732935 0.732996 -0.680233 478.367 672.65)" fill="#144E63"/>
<rect x="696.893" y="525.202" width="34.4753" height="276.786" rx="8" transform="rotate(-42.842 696.893 525.202)" fill="#1C5F78"/>
<rect x="760.615" y="466.107" width="34.4753" height="276.786" rx="8" transform="rotate(-42.842 760.615 466.107)" fill="#1C5F78"/>
<rect x="484.906" y="532.161" width="25.1382" height="51.9785" transform="rotate(-42.842 484.906 532.161)" fill="#1C5F78"/>
<path d="M499.662 557.935C499.662 557.935 484.768 558.065 477.736 540.13L485.367 529.746L497.322 531.651L507.293 547.551L519.248 549.456C519.248 549.456 522.993 557.891 524.246 561.318C525.5 564.744 527.131 570.162 527.131 570.162C527.131 570.162 519.189 575.704 513.317 574.225C505.652 572.294 499.662 557.935 499.662 557.935Z" fill="#144E63"/>
<path d="M499.662 557.935C499.662 557.935 484.768 558.065 477.736 540.13L485.367 529.746L497.322 531.651L507.293 547.551M499.662 557.935L507.293 547.551M499.662 557.935C499.662 557.935 505.652 572.294 513.317 574.225C519.189 575.704 527.131 570.162 527.131 570.162C527.131 570.162 525.5 564.744 524.246 561.318C522.993 557.891 519.248 549.456 519.248 549.456L507.293 547.551" stroke="#144E63"/>
<path d="M487.2 576.76C487.2 576.76 472.502 582.531 459.994 567.316L459.102 563.713L459.399 560.337C459.399 560.337 460.386 558.469 461.316 557.219C460.13 558.272 462.341 555.951 461.58 556.879C461.493 556.985 461.405 557.099 461.316 557.219C461.782 556.805 462.772 555.869 464.675 554.009C471.417 547.418 471.522 552.543 475.908 551.603L490.3 563.751L501.534 561.345C501.534 561.345 507.803 568.344 510.113 571.283C512.424 574.222 515.766 578.995 515.766 578.995C515.766 578.995 510.693 587.326 504.984 587.971C497.532 588.812 487.2 576.76 487.2 576.76Z" fill="#144E63"/>
<path d="M487.2 576.76C487.2 576.76 472.502 582.531 459.994 567.316C459.645 565.909 459.102 563.713 459.102 563.713C459.102 563.713 459.283 561.655 459.399 560.337C459.399 560.337 460.583 558.095 461.58 556.879C462.641 555.586 457.933 560.6 464.675 554.009C471.417 547.418 471.522 552.543 475.908 551.603L490.3 563.751M487.2 576.76L490.3 563.751M487.2 576.76C487.2 576.76 497.532 588.812 504.984 587.971C510.693 587.326 515.766 578.995 515.766 578.995C515.766 578.995 512.424 574.222 510.113 571.283C507.803 568.344 501.534 561.345 501.534 561.345L490.3 563.751" stroke="#144E63"/>
<path d="M545.638 516.003C545.638 516.003 550.575 497.282 536.722 488.374L533.476 488.617L530.452 490.134C530.452 490.134 528.793 491.907 527.687 493.401C528.612 491.686 526.566 495.009 527.387 493.82C527.48 493.684 527.581 493.544 527.687 493.401C527.323 494.075 526.5 495.528 524.863 498.34C519.061 508.304 523.66 506.634 522.889 511.948L534.02 524.067L532.046 537.676C532.046 537.676 538.427 542.36 541.101 543.96C543.775 545.56 548.111 547.694 548.111 547.694C548.111 547.694 555.5 539.019 555.985 532.305C556.617 523.541 545.638 516.003 545.638 516.003Z" fill="#144E63"/>
<path d="M545.638 516.003C545.638 516.003 550.575 497.282 536.722 488.374C535.455 488.469 533.476 488.617 533.476 488.617C533.476 488.617 531.633 489.541 530.452 490.134C530.452 490.134 528.46 492.263 527.387 493.82C526.244 495.477 530.664 488.375 524.863 498.34C519.061 508.304 523.66 506.634 522.889 511.948L534.02 524.067M545.638 516.003L534.02 524.067M545.638 516.003C545.638 516.003 556.617 523.541 555.985 532.305C555.5 539.019 548.111 547.694 548.111 547.694C548.111 547.694 543.775 545.56 541.101 543.96C538.427 542.36 532.046 537.676 532.046 537.676L534.02 524.067" stroke="#144E63"/>
<path d="M525.895 530.157C525.895 530.157 524.121 515.264 506.372 509.612L497.585 518.033L500.897 529.833L517.108 538.578L520.42 550.378C520.42 550.378 528.824 553.473 532.203 554.463C535.583 555.453 540.882 556.668 540.882 556.668C540.882 556.668 545.079 548.308 542.941 542.553C540.151 535.042 525.895 530.157 525.895 530.157Z" fill="#144E63"/>
<path d="M525.895 530.157C525.895 530.157 524.121 515.264 506.372 509.612L497.585 518.033L500.897 529.833L517.108 538.578M525.895 530.157L517.108 538.578M525.895 530.157C525.895 530.157 540.151 535.042 542.941 542.553C545.079 548.308 540.882 556.668 540.882 556.668C540.882 556.668 535.583 555.453 532.203 554.463C528.824 553.473 520.42 550.378 520.42 550.378L517.108 538.578" stroke="#144E63"/>
<path d="M483.875 494.886C483.875 494.886 480.396 500.568 480.409 509.558L483.14 510.263L485.748 504.998L486.607 495.59L489.215 490.325C489.215 490.325 489.311 485.929 489.287 484.246C489.264 482.563 489.146 480.037 489.146 480.037C489.146 480.037 486.787 481.148 485.556 483.925C483.949 487.55 483.875 494.886 483.875 494.886Z" fill="#144E63"/>
<path d="M483.875 494.886C483.875 494.886 480.396 500.568 480.409 509.558L483.14 510.263L485.748 504.998L486.607 495.59M483.875 494.886L486.607 495.59M483.875 494.886C483.875 494.886 483.949 487.55 485.556 483.925C486.787 481.148 489.146 480.037 489.146 480.037C489.146 480.037 489.264 482.563 489.287 484.246C489.311 485.929 489.215 490.325 489.215 490.325L486.607 495.59" stroke="#144E63"/>
<path d="M467.444 517.006C467.444 517.006 474.079 517.523 481.807 513.402L481.041 510.633L475.202 510.705L466.678 514.237L460.839 514.309C460.839 514.309 457.009 516.233 455.572 517.024C454.136 517.814 452.023 519.075 452.023 519.075C452.023 519.075 454.163 520.679 457.17 520.512C461.095 520.294 467.444 517.006 467.444 517.006Z" fill="#144E63"/>
<path d="M467.444 517.006C467.444 517.006 474.079 517.523 481.807 513.402L481.041 510.633L475.202 510.705L466.678 514.237M467.444 517.006L466.678 514.237M467.444 517.006C467.444 517.006 461.095 520.294 457.17 520.512C454.163 520.679 452.023 519.075 452.023 519.075C452.023 519.075 454.136 517.814 455.572 517.024C457.009 516.233 460.839 514.309 460.839 514.309L466.678 514.237" stroke="#144E63"/>
<path d="M485.709 514.468C485.709 514.468 482.678 508.373 475.142 503.317L473.195 505.192L476.309 510.327L483.761 516.342L486.876 521.477C486.876 521.477 490.51 524.034 491.931 524.963C493.353 525.893 495.527 527.217 495.527 527.217C495.527 527.217 495.768 524.63 494.054 522.042C491.817 518.663 485.709 514.468 485.709 514.468Z" fill="#144E63"/>
<path d="M485.709 514.468C485.709 514.468 482.678 508.373 475.142 503.317L473.195 505.192L476.309 510.327L483.761 516.342M485.709 514.468L483.761 516.342M485.709 514.468C485.709 514.468 491.817 518.663 494.054 522.042C495.768 524.63 495.527 527.217 495.527 527.217C495.527 527.217 493.353 525.893 491.931 524.963C490.51 524.034 486.876 521.477 486.876 521.477L483.761 516.342" stroke="#144E63"/>
</g>
</g>
<defs>
<clipPath id="clip0_613_76">
<rect width="2271.68" height="2060" fill="white"/>
</clipPath>
<clipPath id="clip1_613_76">
<rect width="1226" height="1326" fill="white" transform="translate(-32 1339) rotate(-90)"/>
</clipPath>
</defs>
</svg>
