<svg width="2272" height="2060" viewBox="0 0 2272 2060" fill="none" xmlns="http://www.w3.org/2000/svg">
<g clip-path="url(#clip0_673_2)">
<ellipse cx="963.284" cy="1031.26" rx="740.562" ry="743.087" fill="white"/>
<path fill-rule="evenodd" clip-rule="evenodd" d="M1797.23 1794.21L1583.09 1580.08C1555.7 1552.68 1557.05 1506.92 1586.1 1477.87C1615.16 1448.81 1660.92 1447.46 1688.31 1474.86L1902.45 1688.99L1797.23 1794.21Z" fill="white"/>
<path fill-rule="evenodd" clip-rule="evenodd" d="M1904.27 1690.82L1688.95 1906.13C1661.2 1933.88 1615.64 1933.31 1587.19 1904.86C1558.74 1876.41 1558.17 1830.85 1585.92 1803.1L1801.24 1587.79L1904.27 1690.82Z" fill="white"/>
<path d="M209.695 1691.67C209.695 1653.01 241.035 1621.67 279.695 1621.67H1637.79C1659.88 1621.67 1677.79 1639.58 1677.79 1661.67V1733.99C1677.79 1756.08 1659.88 1773.99 1637.79 1773.99H279.695C241.035 1773.99 209.695 1742.65 209.695 1703.99V1691.67Z" fill="white"/>
<mask id="mask0_673_2" style="mask-type:alpha" maskUnits="userSpaceOnUse" x="290" y="341" width="1365" height="1389">
<path d="M972.247 1699.1C612.722 1699.1 320.391 1402.44 320.391 1035.39C320.391 668.345 612.722 371.683 972.247 371.683C1331.77 371.683 1624.1 668.345 1624.1 1035.39C1624.1 1402.44 1331.77 1699.1 972.247 1699.1Z" stroke="#0C1A33" stroke-width="60"/>
</mask>
<g mask="url(#mask0_673_2)">
<path d="M1824.88 1797.75L987.526 1797.75L987.526 190.944L1824.88 190.944L1824.88 1797.75Z" fill="#144E63"/>
</g>
<path fill-rule="evenodd" clip-rule="evenodd" d="M1727.81 1662.75L1614.68 1549.63C1602.94 1537.89 1602.94 1518.85 1614.68 1507.11C1626.42 1495.37 1645.46 1495.37 1657.2 1507.11L1800.47 1650.38L1842.99 1692.9L1800.47 1735.42L1658.78 1877.11C1647.04 1888.85 1628 1888.85 1616.26 1877.11C1604.52 1865.37 1604.52 1846.33 1616.26 1834.59L1721.96 1728.89L1077.53 1728.89V1728.9H284.858C266.592 1728.9 251.784 1714.09 251.784 1695.83C251.784 1677.56 266.592 1662.76 284.858 1662.76H786.643C786.732 1662.75 786.821 1662.75 786.911 1662.75L1727.81 1662.75Z" fill="#144E63"/>
<mask id="mask1_673_2" style="mask-type:alpha" maskUnits="userSpaceOnUse" x="242" y="1019" width="550" height="601">
<rect x="242.766" y="1019.4" width="549.158" height="600.266" fill="#D9D9D9"/>
</mask>
<g mask="url(#mask1_673_2)">
<path d="M956.687 394.597C1316.6 394.597 1608.54 687.387 1608.54 1048.78C1608.54 1410.17 1316.6 1702.96 956.687 1702.96C596.773 1702.96 304.832 1410.17 304.832 1048.78C304.832 687.387 596.773 394.597 956.687 394.597Z" stroke="#144E63" stroke-width="60"/>
</g>
<circle cx="305.398" cy="1019.4" r="30.0634" fill="#144E63"/>
<rect x="666.277" y="1171.28" width="38.0803" height="66.1395" transform="rotate(-2.2393 666.277 1171.28)" fill="white"/>
<mask id="mask2_673_2" style="mask-type:alpha" maskUnits="userSpaceOnUse" x="340" y="412" width="1246" height="1246">
<circle cx="963.218" cy="1035.37" r="622.312" transform="rotate(105.048 963.218 1035.37)" fill="#09B3AD"/>
<circle cx="963.218" cy="1035.37" r="622.312" transform="rotate(105.048 963.218 1035.37)" fill="black" fill-opacity="0.2"/>
</mask>
<g mask="url(#mask2_673_2)">
<circle cx="962.216" cy="1058.41" r="622.312" transform="rotate(105.048 962.216 1058.41)" fill="#08B2E3"/>
<path d="M631.888 1216.84C587.051 1113.25 429.569 1097.39 356.433 1102.4C303.279 1144.56 215.036 1255.02 287.298 1359.55C393.63 1532.16 525.51 1519.63 578.159 1491.79C614.751 1443.3 676.726 1320.42 631.888 1216.84Z" fill="#09B3AD"/>
<path d="M631.888 1216.84C587.051 1113.25 429.569 1097.39 356.433 1102.4C303.279 1144.56 215.036 1255.02 287.298 1359.55C393.63 1532.16 525.51 1519.63 578.159 1491.79C614.751 1443.3 676.726 1320.42 631.888 1216.84Z" fill="black" fill-opacity="0.2"/>
<path fill-rule="evenodd" clip-rule="evenodd" d="M609.097 1367.28C622.548 1321.03 625.542 1271.55 606.597 1227.78C588.885 1186.86 547.641 1160.57 496.829 1145.28C450.624 1131.38 401.098 1128.07 366.991 1129.43C343.994 1149.24 316.044 1181.35 300.168 1218.43C283.197 1258.08 280.556 1301.34 309.966 1343.88L310.379 1344.48L310.761 1345.1C360.966 1426.6 415.284 1461.56 460.367 1474.32C502.426 1486.23 538.622 1479.49 559.949 1470.01C576.041 1447.34 596.669 1410.01 609.097 1367.28ZM662.02 1382.67C646.522 1435.96 620.239 1481.77 600.156 1508.39L596.462 1513.28L591.041 1516.15C558.66 1533.27 505.24 1544.31 445.351 1527.35C384.882 1510.23 320.247 1465.32 264.207 1374.61C221.812 1312.81 227.199 1248.83 249.499 1196.74C271.42 1145.54 310.152 1103.93 339.306 1080.81L346.01 1075.49L354.547 1074.91C393.687 1072.22 454.771 1075.07 512.714 1092.5C570.137 1109.79 630.052 1143.22 657.178 1205.89C683.07 1265.7 677.495 1329.46 662.02 1382.67Z" fill="white"/>
<path d="M1407.91 792.981C1458.85 757.503 1451.31 695.737 1441.17 669.289C1489.12 682.18 1599.91 844.598 1622.29 945.925C1650.32 1229.93 1539.05 1417.31 1479.91 1475.5C1420.94 1454.26 1353.67 1420.95 1329.06 1356.11C1304.45 1291.26 1347.97 1268.58 1352.23 1156.5C1356.49 1044.42 1060.12 1052.09 1079.34 908.445C1098.55 764.804 1344.25 837.328 1407.91 792.981Z" fill="#09B3AD"/>
<path d="M1407.91 792.981C1458.85 757.503 1451.31 695.737 1441.17 669.289C1489.12 682.18 1599.91 844.598 1622.29 945.925C1650.32 1229.93 1539.05 1417.31 1479.91 1475.5C1420.94 1454.26 1353.67 1420.95 1329.06 1356.11C1304.45 1291.26 1347.97 1268.58 1352.23 1156.5C1356.49 1044.42 1060.12 1052.09 1079.34 908.445C1098.55 764.804 1344.25 837.328 1407.91 792.981Z" fill="black" fill-opacity="0.2"/>
<path fill-rule="evenodd" clip-rule="evenodd" d="M1649.71 943.218C1678.53 1235.21 1564.54 1430.9 1499.24 1495.14L1486.88 1507.3L1470.57 1501.43C1411.47 1480.13 1332.7 1443.38 1303.29 1365.89C1295.88 1346.37 1293.27 1328.98 1294.18 1311.87C1295.05 1295.34 1299.18 1280.22 1303.42 1266.1C1304.25 1263.32 1305.11 1260.52 1305.98 1257.68C1313.91 1231.75 1322.91 1202.35 1324.69 1155.45C1325.19 1142.23 1317.88 1129.33 1293.78 1113.84C1272.97 1100.45 1245.84 1089.11 1215.2 1076.3C1210.04 1074.15 1204.79 1071.95 1199.45 1069.7C1164.27 1054.84 1125.33 1037.4 1096.64 1013.05C1066.48 987.457 1045.66 952.347 1052.02 904.792C1058.13 859.119 1083.21 829.465 1116.98 811.664C1148.94 794.813 1188.18 788.742 1224.9 785.996C1243.58 784.599 1262.47 784.021 1280.36 783.579C1283.49 783.501 1286.58 783.428 1289.64 783.356C1304.27 783.01 1318.03 782.685 1330.98 782.011C1346.65 781.195 1360.02 779.912 1370.96 777.749C1382.18 775.529 1388.71 772.773 1392.16 770.368C1410.14 757.846 1417.77 741.093 1420.15 723.964C1422.63 706.041 1419.09 688.689 1415.44 679.152L1396.07 628.627L1448.32 642.675C1459.38 645.648 1469.71 652.063 1478.56 658.848C1487.78 665.912 1497.25 674.834 1506.64 684.842C1525.45 704.88 1545.43 730.856 1564.27 759.185C1601.56 815.274 1636.95 884.51 1649.2 939.982L1649.55 941.585L1649.71 943.218ZM1595.03 950.307C1584.55 904.598 1553.65 842.77 1518.37 789.701C1503.67 767.592 1488.65 747.683 1474.72 731.704C1470.63 760.893 1456.56 792.683 1423.66 815.594C1411.2 824.276 1396.13 828.954 1381.65 831.817C1366.89 834.738 1350.47 836.187 1333.85 837.052C1320.04 837.771 1305.33 838.118 1290.68 838.463C1287.69 838.534 1284.7 838.605 1281.72 838.678C1263.92 839.118 1246.22 839.672 1229.01 840.959C1193.94 843.581 1164.18 849.083 1142.68 860.419C1122.98 870.805 1110.15 885.95 1106.65 912.099C1103.41 936.364 1112.43 954.161 1132.3 971.031C1153.64 989.145 1184.92 1003.73 1220.89 1018.92C1225.73 1020.96 1230.67 1023.02 1235.67 1025.11C1265.89 1037.71 1298.31 1051.22 1323.59 1067.48C1353.26 1086.56 1381.39 1114.73 1379.77 1157.54C1377.7 1211.8 1366.86 1247.15 1358.71 1273.72C1357.84 1276.56 1357.01 1279.29 1356.21 1281.93C1352.11 1295.6 1349.71 1305.31 1349.22 1314.78C1348.75 1323.66 1349.92 1333.42 1354.82 1346.33C1372.72 1393.5 1419.99 1422.41 1472.35 1443.19C1527.85 1378.56 1619.82 1206.26 1595.03 950.307Z" fill="white"/>
<path fill-rule="evenodd" clip-rule="evenodd" d="M400.956 884.204C317.471 1194.73 501.527 1514.14 812.056 1597.63C1122.59 1681.11 1442 1497.06 1525.48 1186.53C1608.97 875.998 1424.91 556.587 1114.38 473.103C803.851 389.618 484.44 573.675 400.956 884.204ZM362.246 873.797C273.013 1205.7 469.741 1547.11 801.649 1636.34C1133.56 1725.57 1474.96 1528.84 1564.19 1196.93C1653.42 865.027 1456.7 523.625 1124.79 434.393C792.879 345.161 451.478 541.889 362.246 873.797Z" fill="white"/>
</g>
<circle cx="994.349" cy="372.033" r="30.0634" fill="#144E63"/>
<mask id="mask3_673_2" style="mask-type:alpha" maskUnits="userSpaceOnUse" x="232" y="245" width="1246" height="1246">
<circle cx="854.992" cy="868.014" r="622.312" transform="rotate(105.048 854.992 868.014)" fill="#08B2E3"/>
</mask>
<g mask="url(#mask3_673_2)">
<circle opacity="0.2" cx="962.218" cy="1069.44" r="622.312" transform="rotate(105.048 962.218 1069.44)" fill="white"/>
</g>
<path d="M242.983 1869V1796.27H273.31C278.755 1796.27 283.312 1797.04 286.981 1798.58C290.675 1800.12 293.445 1802.27 295.291 1805.04C297.161 1807.81 298.097 1811.02 298.097 1814.67C298.097 1817.44 297.517 1819.91 296.356 1822.09C295.196 1824.24 293.598 1826.03 291.562 1827.45C289.526 1828.87 287.171 1829.87 284.496 1830.43V1831.14C287.431 1831.29 290.142 1832.08 292.628 1833.52C295.137 1834.97 297.15 1836.98 298.665 1839.56C300.18 1842.12 300.937 1845.15 300.937 1848.65C300.937 1852.56 299.943 1856.05 297.954 1859.13C295.966 1862.18 293.089 1864.6 289.325 1866.37C285.561 1868.12 280.992 1869 275.618 1869H242.983ZM260.561 1854.83H271.428C275.239 1854.83 278.044 1854.11 279.844 1852.66C281.667 1851.22 282.578 1849.21 282.578 1846.63C282.578 1844.76 282.14 1843.15 281.264 1841.8C280.388 1840.43 279.145 1839.37 277.535 1838.64C275.926 1837.88 273.996 1837.5 271.747 1837.5H260.561V1854.83ZM260.561 1826.17H270.291C272.209 1826.17 273.913 1825.85 275.405 1825.21C276.896 1824.58 278.056 1823.65 278.885 1822.44C279.737 1821.24 280.163 1819.78 280.163 1818.08C280.163 1815.64 279.299 1813.72 277.571 1812.32C275.843 1810.93 273.511 1810.23 270.575 1810.23H260.561V1826.17ZM309.389 1869V1796.27H339.432C344.877 1796.27 349.576 1797.26 353.53 1799.22C357.507 1801.16 360.573 1803.96 362.727 1807.6C364.882 1811.22 365.959 1815.52 365.959 1820.49C365.959 1825.53 364.858 1829.82 362.656 1833.35C360.454 1836.85 357.329 1839.53 353.281 1841.37C349.233 1843.2 344.439 1844.11 338.899 1844.11H319.901V1830.26H335.632C338.284 1830.26 340.497 1829.91 342.273 1829.23C344.072 1828.52 345.433 1827.45 346.356 1826.03C347.28 1824.59 347.741 1822.74 347.741 1820.49C347.741 1818.24 347.28 1816.38 346.356 1814.92C345.433 1813.42 344.072 1812.31 342.273 1811.58C340.473 1810.82 338.26 1810.44 335.632 1810.44H326.967V1869H309.389ZM350.334 1835.76L368.445 1869H349.268L331.513 1835.76H350.334ZM444.244 1832.64C444.244 1840.64 442.705 1847.42 439.627 1852.98C436.549 1858.55 432.383 1862.77 427.127 1865.66C421.895 1868.55 416.024 1869.99 409.513 1869.99C402.979 1869.99 397.096 1868.54 391.864 1865.63C386.632 1862.71 382.477 1858.49 379.4 1852.95C376.346 1847.39 374.819 1840.61 374.819 1832.64C374.819 1824.63 376.346 1817.85 379.4 1812.29C382.477 1806.72 386.632 1802.5 391.864 1799.61C397.096 1796.72 402.979 1795.28 409.513 1795.28C416.024 1795.28 421.895 1796.72 427.127 1799.61C432.383 1802.5 436.549 1806.72 439.627 1812.29C442.705 1817.85 444.244 1824.63 444.244 1832.64ZM426.275 1832.64C426.275 1827.9 425.6 1823.9 424.251 1820.63C422.925 1817.37 421.007 1814.89 418.498 1813.21C416.012 1811.53 413.017 1810.69 409.513 1810.69C406.033 1810.69 403.039 1811.53 400.529 1813.21C398.02 1814.89 396.09 1817.37 394.741 1820.63C393.415 1823.9 392.752 1827.9 392.752 1832.64C392.752 1837.37 393.415 1841.37 394.741 1844.64C396.09 1847.91 398.02 1850.38 400.529 1852.06C403.039 1853.74 406.033 1854.58 409.513 1854.58C413.017 1854.58 416.012 1853.74 418.498 1852.06C421.007 1850.38 422.925 1847.91 424.251 1844.64C425.6 1841.37 426.275 1837.37 426.275 1832.64ZM523.15 1832.64C523.15 1840.64 521.611 1847.42 518.533 1852.98C515.456 1858.55 511.289 1862.77 506.033 1865.66C500.801 1868.55 494.93 1869.99 488.42 1869.99C481.886 1869.99 476.003 1868.54 470.771 1865.63C465.539 1862.71 461.384 1858.49 458.306 1852.95C455.252 1847.39 453.725 1840.61 453.725 1832.64C453.725 1824.63 455.252 1817.85 458.306 1812.29C461.384 1806.72 465.539 1802.5 470.771 1799.61C476.003 1796.72 481.886 1795.28 488.42 1795.28C494.93 1795.28 500.801 1796.72 506.033 1799.61C511.289 1802.5 515.456 1806.72 518.533 1812.29C521.611 1817.85 523.15 1824.63 523.15 1832.64ZM505.181 1832.64C505.181 1827.9 504.506 1823.9 503.157 1820.63C501.831 1817.37 499.914 1814.89 497.404 1813.21C494.918 1811.53 491.923 1810.69 488.42 1810.69C484.94 1810.69 481.945 1811.53 479.435 1813.21C476.926 1814.89 474.996 1817.37 473.647 1820.63C472.321 1823.9 471.658 1827.9 471.658 1832.64C471.658 1837.37 472.321 1841.37 473.647 1844.64C474.996 1847.91 476.926 1850.38 479.435 1852.06C481.945 1853.74 484.94 1854.58 488.42 1854.58C491.923 1854.58 494.918 1853.74 497.404 1852.06C499.914 1850.38 501.831 1847.91 503.157 1844.64C504.506 1841.37 505.181 1837.37 505.181 1832.64ZM533.413 1796.27H555.181L573.647 1841.3H574.499L592.965 1796.27H614.734V1869H597.617V1824.33H597.013L579.542 1868.54H568.604L551.133 1824.08H550.529V1869H533.413V1796.27ZM625.698 1869V1796.27H675.343V1810.55H643.276V1825.46H672.182V1839.77H643.276V1869H625.698ZM701.772 1796.27V1869H684.194V1796.27H701.772ZM712.807 1869V1796.27H763.517V1810.55H730.385V1825.46H760.925V1839.77H730.385V1854.72H763.517V1869H712.807ZM774.526 1869V1796.27H792.104V1854.72H822.36V1869H774.526ZM858.342 1869H831.459V1796.27H858.306C865.716 1796.27 872.096 1797.73 877.447 1800.64C882.821 1803.53 886.964 1807.7 889.876 1813.14C892.788 1818.56 894.244 1825.05 894.244 1832.6C894.244 1840.18 892.788 1846.69 889.876 1852.13C886.987 1857.58 882.856 1861.76 877.482 1864.67C872.108 1867.56 865.728 1869 858.342 1869ZM849.038 1854.01H857.667C861.739 1854.01 865.183 1853.33 868.001 1851.95C870.842 1850.56 872.984 1848.3 874.428 1845.17C875.896 1842.02 876.63 1837.83 876.63 1832.6C876.63 1827.37 875.896 1823.2 874.428 1820.1C872.96 1816.98 870.794 1814.73 867.93 1813.35C865.089 1811.96 861.585 1811.26 857.418 1811.26H849.038V1854.01ZM917.637 1859.06L917.317 1863C917.033 1866.27 916.453 1869.45 915.577 1872.55C914.725 1875.68 913.813 1878.48 912.843 1880.97C911.872 1883.45 911.103 1885.38 910.534 1886.76H899.597C899.976 1885.38 900.485 1883.45 901.124 1880.97C901.787 1878.48 902.402 1875.68 902.97 1872.55C903.539 1869.43 903.858 1866.25 903.929 1863.03L904 1859.06H917.637ZM1035.37 1822.62H1017.61C1017.37 1820.8 1016.89 1819.15 1016.15 1817.69C1015.42 1816.22 1014.45 1814.96 1013.24 1813.92C1012.03 1812.88 1010.6 1812.09 1008.95 1811.54C1007.31 1810.97 1005.5 1810.69 1003.51 1810.69C999.985 1810.69 996.942 1811.55 994.386 1813.28C991.852 1815.01 989.899 1817.51 988.526 1820.78C987.177 1824.04 986.502 1828 986.502 1832.64C986.502 1837.47 987.189 1841.51 988.562 1844.78C989.959 1848.02 991.912 1850.47 994.421 1852.13C996.954 1853.77 999.949 1854.58 1003.41 1854.58C1005.35 1854.58 1007.11 1854.33 1008.7 1853.84C1010.31 1853.34 1011.72 1852.62 1012.92 1851.67C1014.15 1850.7 1015.16 1849.53 1015.94 1848.15C1016.75 1846.76 1017.3 1845.18 1017.61 1843.43L1035.37 1843.54C1035.06 1846.76 1034.12 1849.93 1032.56 1853.06C1031.02 1856.18 1028.9 1859.03 1026.2 1861.61C1023.5 1864.17 1020.21 1866.21 1016.33 1867.72C1012.47 1869.24 1008.05 1869.99 1003.05 1869.99C996.469 1869.99 990.574 1868.55 985.366 1865.66C980.181 1862.75 976.085 1858.51 973.079 1852.95C970.072 1847.39 968.569 1840.61 968.569 1832.64C968.569 1824.63 970.096 1817.85 973.15 1812.29C976.204 1806.72 980.335 1802.5 985.543 1799.61C990.752 1796.72 996.587 1795.28 1003.05 1795.28C1007.45 1795.28 1011.53 1795.89 1015.27 1797.12C1019.01 1798.33 1022.3 1800.11 1025.14 1802.45C1027.98 1804.77 1030.29 1807.62 1032.06 1811.01C1033.84 1814.4 1034.94 1818.27 1035.37 1822.62ZM1114.07 1832.64C1114.07 1840.64 1112.53 1847.42 1109.45 1852.98C1106.37 1858.55 1102.21 1862.77 1096.95 1865.66C1091.72 1868.55 1085.85 1869.99 1079.34 1869.99C1072.8 1869.99 1066.92 1868.54 1061.69 1865.63C1056.46 1862.71 1052.3 1858.49 1049.22 1852.95C1046.17 1847.39 1044.64 1840.61 1044.64 1832.64C1044.64 1824.63 1046.17 1817.85 1049.22 1812.29C1052.3 1806.72 1056.46 1802.5 1061.69 1799.61C1066.92 1796.72 1072.8 1795.28 1079.34 1795.28C1085.85 1795.28 1091.72 1796.72 1096.95 1799.61C1102.21 1802.5 1106.37 1806.72 1109.45 1812.29C1112.53 1817.85 1114.07 1824.63 1114.07 1832.64ZM1096.1 1832.64C1096.1 1827.9 1095.42 1823.9 1094.07 1820.63C1092.75 1817.37 1090.83 1814.89 1088.32 1813.21C1085.84 1811.53 1082.84 1810.69 1079.34 1810.69C1075.86 1810.69 1072.86 1811.53 1070.35 1813.21C1067.84 1814.89 1065.91 1817.37 1064.56 1820.63C1063.24 1823.9 1062.58 1827.9 1062.58 1832.64C1062.58 1837.37 1063.24 1841.37 1064.56 1844.64C1065.91 1847.91 1067.84 1850.38 1070.35 1852.06C1072.86 1853.74 1075.86 1854.58 1079.34 1854.58C1082.84 1854.58 1085.84 1853.74 1088.32 1852.06C1090.83 1850.38 1092.75 1847.91 1094.07 1844.64C1095.42 1841.37 1096.1 1837.37 1096.1 1832.64ZM1124.33 1869V1796.27H1141.91V1854.72H1172.16V1869H1124.33ZM1247.08 1832.64C1247.08 1840.64 1245.54 1847.42 1242.46 1852.98C1239.38 1858.55 1235.21 1862.77 1229.96 1865.66C1224.73 1868.55 1218.86 1869.99 1212.35 1869.99C1205.81 1869.99 1199.93 1868.54 1194.7 1865.63C1189.46 1862.71 1185.31 1858.49 1182.23 1852.95C1179.18 1847.39 1177.65 1840.61 1177.65 1832.64C1177.65 1824.63 1179.18 1817.85 1182.23 1812.29C1185.31 1806.72 1189.46 1802.5 1194.7 1799.61C1199.93 1796.72 1205.81 1795.28 1212.35 1795.28C1218.86 1795.28 1224.73 1796.72 1229.96 1799.61C1235.21 1802.5 1239.38 1806.72 1242.46 1812.29C1245.54 1817.85 1247.08 1824.63 1247.08 1832.64ZM1229.11 1832.64C1229.11 1827.9 1228.43 1823.9 1227.08 1820.63C1225.76 1817.37 1223.84 1814.89 1221.33 1813.21C1218.84 1811.53 1215.85 1810.69 1212.35 1810.69C1208.87 1810.69 1205.87 1811.53 1203.36 1813.21C1200.85 1814.89 1198.92 1817.37 1197.57 1820.63C1196.25 1823.9 1195.58 1827.9 1195.58 1832.64C1195.58 1837.37 1196.25 1841.37 1197.57 1844.64C1198.92 1847.91 1200.85 1850.38 1203.36 1852.06C1205.87 1853.74 1208.87 1854.58 1212.35 1854.58C1215.85 1854.58 1218.84 1853.74 1221.33 1852.06C1223.84 1850.38 1225.76 1847.91 1227.08 1844.64C1228.43 1841.37 1229.11 1837.37 1229.11 1832.64ZM1257.34 1869V1796.27H1287.38C1292.83 1796.27 1297.53 1797.26 1301.48 1799.22C1305.46 1801.16 1308.52 1803.96 1310.68 1807.6C1312.83 1811.22 1313.91 1815.52 1313.91 1820.49C1313.91 1825.53 1312.81 1829.82 1310.61 1833.35C1308.4 1836.85 1305.28 1839.53 1301.23 1841.37C1297.18 1843.2 1292.39 1844.11 1286.85 1844.11H1267.85V1830.26H1283.58C1286.23 1830.26 1288.45 1829.91 1290.22 1829.23C1292.02 1828.52 1293.38 1827.45 1294.31 1826.03C1295.23 1824.59 1295.69 1822.74 1295.69 1820.49C1295.69 1818.24 1295.23 1816.38 1294.31 1814.92C1293.38 1813.42 1292.02 1812.31 1290.22 1811.58C1288.42 1810.82 1286.21 1810.44 1283.58 1810.44H1274.92V1869H1257.34ZM1298.28 1835.76L1316.39 1869H1297.22L1279.46 1835.76H1298.28ZM1339.28 1869H1320.39L1344.93 1796.27H1368.33L1392.87 1869H1373.98L1356.89 1814.6H1356.33L1339.28 1869ZM1336.76 1840.38H1376.25V1853.73H1336.76V1840.38ZM1427.58 1869H1400.7V1796.27H1427.54C1434.95 1796.27 1441.33 1797.73 1446.68 1800.64C1452.06 1803.53 1456.2 1807.7 1459.11 1813.14C1462.03 1818.56 1463.48 1825.05 1463.48 1832.6C1463.48 1840.18 1462.03 1846.69 1459.11 1852.13C1456.23 1857.58 1452.09 1861.76 1446.72 1864.67C1441.35 1867.56 1434.97 1869 1427.58 1869ZM1418.28 1854.01H1426.91C1430.98 1854.01 1434.42 1853.33 1437.24 1851.95C1440.08 1850.56 1442.22 1848.3 1443.67 1845.17C1445.13 1842.02 1445.87 1837.83 1445.87 1832.6C1445.87 1827.37 1445.13 1823.2 1443.67 1820.1C1442.2 1816.98 1440.03 1814.73 1437.17 1813.35C1434.33 1811.96 1430.82 1811.26 1426.66 1811.26H1418.28V1854.01ZM1542.39 1832.64C1542.39 1840.64 1540.85 1847.42 1537.77 1852.98C1534.69 1858.55 1530.53 1862.77 1525.27 1865.66C1520.04 1868.55 1514.17 1869.99 1507.66 1869.99C1501.12 1869.99 1495.24 1868.54 1490.01 1865.63C1484.78 1862.71 1480.62 1858.49 1477.54 1852.95C1474.49 1847.39 1472.96 1840.61 1472.96 1832.64C1472.96 1824.63 1474.49 1817.85 1477.54 1812.29C1480.62 1806.72 1484.78 1802.5 1490.01 1799.61C1495.24 1796.72 1501.12 1795.28 1507.66 1795.28C1514.17 1795.28 1520.04 1796.72 1525.27 1799.61C1530.53 1802.5 1534.69 1806.72 1537.77 1812.29C1540.85 1817.85 1542.39 1824.63 1542.39 1832.64ZM1524.42 1832.64C1524.42 1827.9 1523.74 1823.9 1522.4 1820.63C1521.07 1817.37 1519.15 1814.89 1516.64 1813.21C1514.16 1811.53 1511.16 1810.69 1507.66 1810.69C1504.18 1810.69 1501.18 1811.53 1498.67 1813.21C1496.16 1814.89 1494.23 1817.37 1492.89 1820.63C1491.56 1823.9 1490.9 1827.9 1490.9 1832.64C1490.9 1837.37 1491.56 1841.37 1492.89 1844.64C1494.23 1847.91 1496.16 1850.38 1498.67 1852.06C1501.18 1853.74 1504.18 1854.58 1507.66 1854.58C1511.16 1854.58 1514.16 1853.74 1516.64 1852.06C1519.15 1850.38 1521.07 1847.91 1522.4 1844.64C1523.74 1841.37 1524.42 1837.37 1524.42 1832.64Z" fill="#144E63"/>
<path d="M761.687 688.002C761.81 687.147 761.892 686.285 761.892 685.429C761.892 675.256 754.29 666.465 743.992 665.158C732.791 663.769 722.574 671.699 721.145 682.932C717.669 710.517 705.243 736.221 686.241 755.308C668.178 773.369 644.968 785.219 619.096 789.515C607.97 791.355 600.374 801.98 602.298 813.016C604.18 824.092 614.669 831.693 625.788 829.812C660.082 824.133 690.99 808.357 715.137 784.206C740.557 758.702 757.068 724.535 761.686 688L761.687 688.002Z" fill="white" fill-opacity="0.7"/>
<path d="M819.457 721.007C816.104 767.311 795.913 811.198 762.493 844.586C728.684 878.424 685.94 898.08 638.925 901.514C627.676 902.329 619.348 912.18 620.04 923.379C620.848 934.579 630.626 943.035 641.827 942.261C698.024 938.136 751.149 913.739 791.376 873.442C831.678 833.105 856.119 779.981 860.157 723.874C860.246 723.381 860.246 722.896 860.246 722.403C860.246 711.778 852.028 702.829 841.237 702.05C830.001 701.27 820.271 709.767 819.457 721.007Z" fill="white" fill-opacity="0.4"/>
<rect width="320.61" height="179.806" rx="16" transform="matrix(0.727535 -0.68607 0.679338 0.733826 29.2905 939.528)" fill="#09B3AD"/>
<rect width="320.61" height="179.806" rx="16" transform="matrix(0.727535 -0.68607 0.679338 0.733826 29.2905 939.528)" fill="black" fill-opacity="0.2"/>
<rect width="320.61" height="179.806" rx="16" transform="matrix(0.727535 -0.68607 0.679338 0.733826 29.2905 939.528)" stroke="white" stroke-width="40"/>
<rect width="323.521" height="179.806" rx="14" transform="matrix(0.727535 -0.68607 0.679338 0.733826 690.113 326.904)" fill="#09B3AD"/>
<rect width="323.521" height="179.806" rx="14" transform="matrix(0.727535 -0.68607 0.679338 0.733826 690.113 326.904)" fill="black" fill-opacity="0.2"/>
<rect width="323.521" height="179.806" rx="14" transform="matrix(0.727535 -0.68607 0.679338 0.733826 690.113 326.904)" stroke="white" stroke-width="40"/>
<path d="M380.124 382.581C376.365 367.534 390.421 354.12 405.276 358.577L817.409 482.233C832.102 486.641 836.567 505.267 825.47 515.857L517.627 809.656C506.531 820.247 488.133 814.918 484.415 800.035L380.124 382.581Z" fill="white"/>
<path d="M308.468 638.932C304.749 623.901 318.858 610.553 333.721 615.041L598.834 695.089C613.504 699.518 617.955 718.06 606.884 728.625L508.113 822.89L408.443 918.012C397.317 928.631 378.831 923.277 375.141 908.367L308.468 638.932Z" fill="white"/>
<path d="M348.866 600.687C343.561 584.666 359.261 569.682 375.018 575.728L499.756 623.599C513.463 628.859 517.02 646.603 506.399 656.739L423.658 735.705C413.037 745.842 395.478 741.461 390.863 727.524L348.866 600.687Z" fill="white"/>
<path d="M324.974 478.178C316.339 460.444 335.872 442.24 352.955 452.102L603.512 596.742C615.069 603.414 616.975 619.318 607.321 628.532L484.335 745.907C474.538 755.258 458.474 752.371 452.545 740.194L324.974 478.178Z" fill="white"/>
<path d="M353.36 437.152C349.909 422.457 363.358 409.382 377.95 413.245L781.322 520.049C796.432 524.05 801.319 543.06 790.011 553.851L480.982 848.783C469.794 859.461 451.239 853.943 447.703 838.887L353.36 437.152Z" fill="white"/>
<path d="M455.287 367.989C450.914 352.531 465.63 338.487 480.867 343.575L680.416 410.221C694.707 414.994 698.788 433.256 687.888 443.659L545.601 579.455C534.702 589.857 516.649 584.928 512.548 570.43L455.287 367.989Z" fill="white"/>
<path d="M551.616 357.726C543.872 340.518 562.077 323.144 578.905 331.682L843.223 465.807C855.528 472.051 857.963 488.584 847.981 498.111L705.308 634.275C695.327 643.801 678.925 640.597 673.262 628.015L551.616 357.726Z" fill="white"/>
<path d="M781.002 487.011L490.449 764.309L398.991 376.73L781.002 487.011Z" fill="#1C5F78" stroke="#144E63" stroke-width="10"/>
<path d="M587.826 717.109L396.868 898.112L330.715 638.168L587.826 717.109Z" fill="#1C5F78" stroke="#144E63" stroke-width="10"/>
<path d="M335.371 643.04L405.471 661.436L352.051 712.418L335.371 643.04Z" fill="white"/>
<path d="M517.82 652.808L443.754 768.255L368.486 599.874L517.82 652.808Z" fill="#1C5F78" stroke="#144E63" stroke-width="10"/>
<path d="M697.367 419.468L518.922 652.864L476.208 366.48L697.367 419.468Z" fill="#1C5F78" stroke="#144E63" stroke-width="10"/>
<path d="M832.171 485.107L686.759 623.885L571.86 352.779L832.171 485.107Z" fill="#1C5F78" stroke="#144E63" stroke-width="10"/>
<path d="M374.368 605.821L440.952 631.149L401.995 669.675L374.368 605.821Z" fill="white"/>
<path d="M573.174 581.115L445.477 702.987L334.109 458.46L573.174 581.115Z" fill="#1C5F78" stroke="#144E63" stroke-width="10"/>
<path d="M341.025 465.704L390.881 490.386L371.714 532.767L341.025 465.704Z" fill="white"/>
<path d="M771.134 541.698L454.82 843.582L376.467 438.21L771.134 541.698Z" fill="#1C5F78" stroke="#144E63" stroke-width="10"/>
<path d="M576.2 357.545L649.446 394.792L608.613 433.762L576.2 357.545Z" fill="white"/>
<path d="M381.252 443.094L464.439 465.038L397.914 528.529L381.252 443.094Z" fill="white"/>
<path d="M481.305 372.524L563.774 391.832L493.524 455.554L481.305 372.524Z" fill="white"/>
<path d="M404.399 381.963L474.821 401.969L416.93 441.437L404.399 381.963Z" fill="white"/>
<path d="M1150.55 238.306L1154.75 222.679L1195.25 202.781C1198.31 201.217 1200.95 199.746 1203.17 198.366C1205.4 196.957 1207.22 195.438 1208.63 193.808C1210.05 192.15 1211.06 190.209 1211.66 187.985C1212.32 185.497 1212.35 183.23 1211.74 181.183C1211.14 179.107 1210.02 177.33 1208.37 175.854C1206.73 174.377 1204.68 173.308 1202.22 172.647C1199.73 171.979 1197.42 171.905 1195.27 172.426C1193.13 172.918 1191.27 173.974 1189.71 175.593C1188.17 177.22 1187.04 179.394 1186.31 182.116L1165.72 176.584C1167.37 170.467 1170.16 165.555 1174.11 161.846C1178.05 158.136 1182.84 155.75 1188.46 154.687C1194.11 153.603 1200.25 153.949 1206.86 155.727C1213.68 157.559 1219.3 160.292 1223.72 163.928C1228.14 167.563 1231.18 171.798 1232.83 176.635C1234.51 181.45 1234.63 186.549 1233.19 191.934C1232.27 195.358 1230.67 198.568 1228.39 201.564C1226.11 204.56 1222.64 207.612 1217.97 210.721C1213.34 213.837 1206.99 217.357 1198.94 221.281L1185.52 228.312L1185.37 228.883L1221.8 238.673L1217.1 256.188L1150.55 238.306Z" fill="#144E63"/>
<path d="M1268.26 277.038C1260.67 274.138 1254.82 269.841 1250.7 264.147C1246.6 258.424 1244.35 251.612 1243.97 243.711C1243.59 235.782 1245.24 227.053 1248.92 217.525C1252.59 207.997 1257.17 200.47 1262.66 194.944C1268.19 189.401 1274.35 185.933 1281.14 184.54C1287.97 183.13 1295.18 183.875 1302.77 186.775C1310.35 189.675 1316.22 193.93 1320.37 199.539C1324.56 205.131 1326.86 211.835 1327.28 219.652C1327.7 227.468 1326.07 236.126 1322.41 245.625C1318.75 255.192 1314.14 262.804 1308.57 268.461C1303 274.118 1296.78 277.694 1289.92 279.189C1283.09 280.666 1275.87 279.95 1268.26 277.038ZM1274.83 259.843C1279.36 261.575 1283.91 260.67 1288.47 257.127C1293.05 253.557 1297.16 246.968 1300.8 237.362C1303.2 231.079 1304.55 225.655 1304.83 221.093C1305.13 216.501 1304.53 212.768 1303.03 209.893C1301.53 207.017 1299.27 205.001 1296.24 203.843C1291.74 202.122 1287.23 203.01 1282.72 206.506C1278.21 209.974 1274.15 216.402 1270.53 225.788C1268.06 232.146 1266.65 237.657 1266.3 242.322C1265.97 246.999 1266.56 250.808 1268.06 253.751C1269.57 256.665 1271.83 258.696 1274.83 259.843Z" fill="#144E63"/>
<path d="M1321.12 296.011L1328.42 281.569L1372.14 270.351C1375.45 269.443 1378.33 268.541 1380.79 267.643C1383.26 266.719 1385.35 265.603 1387.06 264.295C1388.79 262.961 1390.17 261.266 1391.21 259.211C1392.37 256.912 1392.86 254.698 1392.68 252.57C1392.51 250.414 1391.78 248.446 1390.47 246.665C1389.16 244.884 1387.37 243.42 1385.1 242.272C1382.8 241.11 1380.55 240.565 1378.34 240.637C1376.14 240.682 1374.12 241.337 1372.25 242.603C1370.42 243.883 1368.87 245.78 1367.59 248.296L1348.57 238.681C1351.42 233.028 1355.16 228.789 1359.78 225.963C1364.4 223.136 1369.57 221.776 1375.29 221.882C1381.05 221.974 1386.98 223.564 1393.1 226.653C1399.4 229.838 1404.34 233.66 1407.93 238.12C1411.51 242.581 1413.62 247.346 1414.25 252.418C1414.92 257.475 1414 262.492 1411.48 267.469C1409.88 270.633 1407.66 273.449 1404.82 275.917C1401.98 278.385 1397.96 280.665 1392.76 282.757C1387.58 284.863 1380.66 287.015 1371.97 289.214L1357.4 293.36L1357.13 293.888L1390.81 310.903L1382.63 327.09L1321.12 296.011Z" fill="#144E63"/>
<path d="M1404.57 321.769L1413.97 306.955L1478.37 276.658L1491.54 285.013L1478.77 305.122L1471.14 300.275L1433.34 318.172L1432.95 318.786L1479.58 348.382L1470.08 363.349L1404.57 321.769ZM1434.24 358.907L1445.4 341.331L1449.9 335.089L1484.51 280.555L1502.28 291.833L1452.4 370.429L1434.24 358.907Z" fill="#144E63"/>
<path d="M1604.22 405.798C1606.14 403.059 1606.79 400.211 1606.15 397.253C1605.57 394.291 1603.6 391.39 1600.24 388.549C1598.02 386.668 1595.93 385.39 1593.96 384.714C1591.99 384.038 1590.21 383.895 1588.6 384.285C1587.02 384.652 1585.67 385.473 1584.55 386.748C1583.6 387.773 1583.02 388.885 1582.79 390.086C1582.59 391.307 1582.68 392.611 1583.05 393.999C1583.47 395.384 1584.13 396.856 1585.03 398.416C1585.93 399.975 1587.05 401.614 1588.37 403.332L1593.3 409.892C1596.17 413.633 1598.4 417.275 1600 420.82C1601.63 424.383 1602.61 427.818 1602.95 431.122C1603.31 434.447 1603 437.655 1602 440.747C1601.01 443.838 1599.32 446.816 1596.94 449.679C1593.11 454.144 1588.72 457.033 1583.75 458.346C1578.79 459.659 1573.47 459.388 1567.82 457.532C1562.18 455.697 1556.41 452.271 1550.49 447.256C1544.55 442.22 1540.12 436.942 1537.22 431.419C1534.31 425.897 1533.17 420.283 1533.8 414.577C1534.42 408.871 1537.05 403.214 1541.68 397.607L1558.12 411.537C1556.32 413.944 1555.31 416.37 1555.11 418.816C1554.9 421.263 1555.41 423.683 1556.64 426.075C1557.89 428.487 1559.78 430.761 1562.3 432.897C1564.61 434.856 1566.84 436.209 1568.99 436.957C1571.16 437.724 1573.15 437.924 1574.97 437.559C1576.79 437.194 1578.32 436.305 1579.56 434.891C1580.67 433.531 1581.23 432.034 1581.22 430.4C1581.23 428.744 1580.69 426.853 1579.59 424.73C1578.53 422.602 1576.96 420.141 1574.89 417.346L1568.93 409.323C1563.98 402.701 1561.07 396.319 1560.19 390.178C1559.34 384.013 1561.21 378.247 1565.8 372.88C1569.5 368.468 1573.94 365.619 1579.12 364.331C1584.3 363.043 1589.78 363.258 1595.56 364.974C1601.33 366.69 1606.91 369.831 1612.3 374.396C1617.8 379.059 1621.78 384.041 1624.24 389.343C1626.74 394.64 1627.69 399.915 1627.09 405.168C1626.49 410.42 1624.35 415.274 1620.65 419.728L1604.22 405.798Z" fill="#144E63"/>
<path d="M1639.76 424.729L1653.03 412.17L1707.11 469.324L1693.83 481.883L1674.43 461.379L1620.09 512.8L1604.84 496.687L1659.19 445.266L1639.76 424.729Z" fill="#144E63"/>
<path d="M1649.99 553.18L1635.38 533.913L1728.53 502.686L1746.63 526.553L1691.44 607.832L1676.83 588.564L1719.1 529.064L1718.66 528.484L1649.99 553.18ZM1677.23 528.47L1707.77 568.743L1694.16 579.071L1663.61 538.798L1677.23 528.47Z" fill="#144E63"/>
<path d="M1698.62 622.877L1778.22 574.614L1798.16 607.497C1801.77 613.457 1803.73 619.307 1804.02 625.048C1804.35 630.8 1803.16 636.112 1800.44 640.983C1797.75 645.839 1793.67 649.925 1788.21 653.24C1782.71 656.57 1777.17 658.28 1771.59 658.368C1766.05 658.466 1760.81 656.983 1755.87 653.919C1750.93 650.855 1746.62 646.278 1742.92 640.189L1730.62 619.899L1745.78 610.709L1755.91 627.422C1757.67 630.324 1759.65 632.441 1761.84 633.771C1764.04 635.128 1766.36 635.762 1768.78 635.673C1771.24 635.568 1773.68 634.777 1776.12 633.3C1778.58 631.808 1780.4 630.014 1781.57 627.919C1782.77 625.809 1783.27 623.471 1783.06 620.904C1782.85 618.338 1781.87 615.617 1780.13 612.741L1774.38 603.257L1710.28 642.117L1698.62 622.877Z" fill="#144E63"/>
<path d="M1836.7 677.55L1752.09 716.373L1742.7 695.923L1827.31 657.1L1836.7 677.55Z" fill="#144E63"/>
<path d="M1846.68 823.2C1849.87 822.175 1852.1 820.292 1853.38 817.552C1854.7 814.834 1854.88 811.332 1853.91 807.044C1853.28 804.206 1852.38 801.923 1851.21 800.197C1850.05 798.47 1848.71 797.28 1847.2 796.625C1845.72 795.964 1844.14 795.805 1842.48 796.147C1841.11 796.393 1839.97 796.927 1839.07 797.751C1838.17 798.604 1837.45 799.696 1836.91 801.029C1836.41 802.384 1836.05 803.956 1835.83 805.744C1835.61 807.533 1835.51 809.511 1835.53 811.681L1835.51 819.885C1835.54 824.598 1835.13 828.852 1834.27 832.647C1833.42 836.471 1832.13 839.803 1830.41 842.643C1828.69 845.512 1826.51 847.882 1823.85 849.751C1821.2 851.619 1818.05 852.977 1814.42 853.822C1808.68 855.079 1803.43 854.734 1798.68 852.788C1793.92 850.842 1789.85 847.423 1786.46 842.533C1783.07 837.672 1780.52 831.456 1778.83 823.887C1777.12 816.288 1776.77 809.409 1777.78 803.251C1778.79 797.093 1781.27 791.926 1785.21 787.75C1789.15 783.575 1794.66 780.647 1801.73 778.966L1806.45 799.989C1803.56 800.823 1801.3 802.154 1799.66 803.982C1798.02 805.809 1796.97 808.048 1796.5 810.698C1796.05 813.378 1796.18 816.329 1796.91 819.552C1797.57 822.509 1798.53 824.932 1799.8 826.823C1801.06 828.743 1802.53 830.106 1804.21 830.911C1805.88 831.717 1807.63 831.929 1809.47 831.547C1811.18 831.133 1812.53 830.272 1813.51 828.965C1814.52 827.652 1815.22 825.816 1815.62 823.459C1816.06 821.125 1816.3 818.215 1816.32 814.731L1816.41 804.742C1816.45 796.473 1817.97 789.625 1820.98 784.199C1824.02 778.766 1828.98 775.292 1835.88 773.776C1841.49 772.487 1846.75 772.89 1851.66 774.988C1856.57 777.085 1860.82 780.559 1864.39 785.41C1867.96 790.26 1870.52 796.131 1872.06 803.02C1873.64 810.057 1873.82 816.432 1872.58 822.143C1871.38 827.878 1868.96 832.66 1865.32 836.49C1861.67 840.32 1857.03 842.898 1851.4 844.224L1846.68 823.2Z" fill="#144E63"/>
<path d="M1790.59 875.1L1883.01 863.939L1887.62 902.116C1888.46 909.035 1887.82 915.171 1885.72 920.522C1883.66 925.899 1880.38 930.248 1875.9 933.567C1871.45 936.882 1866.04 938.923 1859.7 939.69C1853.32 940.46 1847.57 939.735 1842.45 937.515C1837.36 935.321 1833.2 931.81 1829.96 926.982C1826.72 922.153 1824.67 916.204 1823.82 909.134L1820.98 885.578L1838.57 883.453L1840.92 902.857C1841.33 906.227 1842.25 908.969 1843.7 911.083C1845.15 913.228 1847 914.76 1849.24 915.679C1851.52 916.594 1854.07 916.881 1856.9 916.54C1859.76 916.194 1862.16 915.31 1864.09 913.886C1866.05 912.458 1867.47 910.532 1868.34 908.108C1869.2 905.683 1869.44 902.801 1869.03 899.462L1867.7 888.451L1793.29 897.438L1790.59 875.1Z" fill="#144E63"/>
<path d="M1800.25 962.255L1893.32 960.418L1894.08 998.866C1894.22 1005.83 1893.08 1011.87 1890.67 1016.98C1888.28 1022.12 1884.78 1026.11 1880.17 1028.96C1875.59 1031.81 1870.12 1033.3 1863.76 1033.43C1857.3 1033.55 1851.79 1032.25 1847.22 1029.52C1842.68 1026.79 1839.18 1022.86 1836.72 1017.73C1834.28 1012.59 1832.99 1006.48 1832.85 999.392L1832.37 975.078L1850.1 974.729L1850.49 994.861C1850.56 998.254 1851.06 1001.08 1851.98 1003.33C1852.93 1005.62 1854.33 1007.33 1856.17 1008.48C1858.05 1009.62 1860.42 1010.17 1863.3 1010.11C1866.18 1010.05 1868.54 1009.42 1870.4 1008.2C1872.28 1006.98 1873.67 1005.21 1874.57 1002.89C1875.49 1000.57 1875.92 997.724 1875.85 994.361L1875.63 983.272L1800.69 984.75L1800.25 962.255ZM1843.82 1013.81L1801.74 1037.83L1801.26 1013.29L1843.35 989.728L1843.82 1013.81Z" fill="#144E63"/>
<path d="M1892.18 1078.82L1799.23 1073.77L1800.45 1051.3L1893.4 1056.36L1892.18 1078.82Z" fill="#144E63"/>
<path d="M1880.37 1183.11L1788.1 1170.72L1790.64 1151.8L1848.82 1122.23L1848.9 1121.65L1795.65 1114.5L1798.65 1092.2L1890.91 1104.58L1888.33 1123.78L1830.3 1152.95L1830.2 1153.71L1883.35 1160.85L1880.37 1183.11Z" fill="#144E63"/>
<path d="M1860.8 1201.66L1878.32 1206.85L1855.98 1282.29L1838.46 1277.1L1846.48 1250.04L1774.73 1228.8L1781.03 1207.53L1852.77 1228.77L1860.8 1201.66Z" fill="#144E63"/>
</g>
<defs>
<clipPath id="clip0_673_2">
<rect width="2271.68" height="2060" fill="white"/>
</clipPath>
</defs>
</svg>
