<svg width="2272" height="2053" viewBox="0 0 2272 2053" fill="none" xmlns="http://www.w3.org/2000/svg">
<g clip-path="url(#clip0_695_2)">
<circle cx="1049" cy="1126" r="739" fill="white"/>
<path fill-rule="evenodd" clip-rule="evenodd" d="M1881.18 1891.18L1667.5 1677.5C1640.17 1650.16 1641.51 1604.5 1670.5 1575.5C1699.5 1546.51 1745.16 1545.16 1772.5 1572.5L1986.18 1786.18L1881.18 1891.18Z" fill="white"/>
<path fill-rule="evenodd" clip-rule="evenodd" d="M1988 1788L1773.14 2002.86C1745.45 2030.55 1699.98 2029.98 1671.59 2001.59C1643.2 1973.2 1642.63 1927.74 1670.33 1900.05L1885.18 1685.19L1988 1788Z" fill="white"/>
<path d="M296.999 1789C296.999 1750.34 328.339 1719 366.999 1719H1785C1807.09 1719 1825 1736.91 1825 1759V1824C1825 1846.09 1807.09 1864 1785 1864H366.999C328.339 1864 296.999 1832.66 296.999 1794V1789Z" fill="white"/>
<path d="M1822 1790L872.998 1790" stroke="#144E63" stroke-width="60" stroke-linecap="round"/>
<path fill-rule="evenodd" clip-rule="evenodd" d="M1884.42 1832.51L1699.02 1647.11C1687.31 1635.4 1687.31 1616.4 1699.02 1604.68C1710.74 1592.97 1729.74 1592.97 1741.45 1604.68L1926.85 1790.08L1884.42 1832.51Z" fill="#144E63"/>
<path fill-rule="evenodd" clip-rule="evenodd" d="M1926.85 1790.08L1743.03 1973.9C1731.31 1985.62 1712.32 1985.62 1700.6 1973.9C1688.89 1962.19 1688.89 1943.19 1700.6 1931.47L1884.42 1747.66L1926.85 1790.08Z" fill="#144E63"/>
<mask id="mask0_695_2" style="mask-type:alpha" maskUnits="userSpaceOnUse" x="377" y="440" width="1362" height="1380">
<path d="M1057.94 1790C699.117 1790 407.526 1494.95 407.526 1130.11C407.526 765.264 699.117 470.212 1057.94 470.212C1416.77 470.212 1708.36 765.264 1708.36 1130.11C1708.36 1494.95 1416.77 1790 1057.94 1790Z" stroke="#0C1A33" stroke-width="60"/>
</mask>
<g mask="url(#mask0_695_2)">
<rect x="1908.78" y="1888.27" width="835.589" height="1597.96" transform="rotate(-180 1908.78 1888.27)" fill="#144E63"/>
</g>
<path fill-rule="evenodd" clip-rule="evenodd" d="M1088 1820H369C352.431 1820 339 1806.57 339 1790C339 1773.43 352.431 1760 369 1760H1088V1820Z" fill="#144E63"/>
<mask id="mask1_695_2" style="mask-type:alpha" maskUnits="userSpaceOnUse" x="330" y="1118" width="548" height="599">
<rect x="330" y="1118" width="548" height="599" fill="#D9D9D9"/>
</mask>
<g mask="url(#mask1_695_2)">
<circle cx="1042.42" cy="1143.42" r="650.418" stroke="#144E63" stroke-width="60"/>
</g>
<circle cx="392.5" cy="1118" r="30" fill="#144E63"/>
<rect x="752.618" y="1269.56" width="38" height="66" transform="rotate(-2.2393 752.618 1269.56)" fill="white"/>
<mask id="mask2_695_2" style="mask-type:alpha" maskUnits="userSpaceOnUse" x="427" y="512" width="1244" height="1244">
<circle cx="1048.93" cy="1133.93" r="621" transform="rotate(105.048 1048.93 1133.93)" fill="#09B3AD"/>
<circle cx="1048.93" cy="1133.93" r="621" transform="rotate(105.048 1048.93 1133.93)" fill="black" fill-opacity="0.2"/>
</mask>
<g mask="url(#mask2_695_2)">
<circle cx="1047.93" cy="1156.93" r="621" transform="rotate(105.048 1047.93 1156.93)" fill="#08B2E3"/>
<path d="M718.302 1315.02C673.559 1211.66 516.41 1195.82 443.428 1200.83C390.386 1242.9 302.329 1353.13 374.439 1457.44C480.546 1629.68 612.149 1617.18 664.686 1589.39C701.201 1541 763.045 1418.39 718.302 1315.02Z" fill="#09B3AD"/>
<path d="M718.302 1315.02C673.559 1211.66 516.41 1195.82 443.428 1200.83C390.386 1242.9 302.329 1353.13 374.439 1457.44C480.546 1629.68 612.149 1617.18 664.686 1589.39C701.201 1541 763.045 1418.39 718.302 1315.02Z" fill="black" fill-opacity="0.2"/>
<path fill-rule="evenodd" clip-rule="evenodd" d="M695.56 1465.14C708.982 1418.99 711.97 1369.62 693.065 1325.95C675.39 1285.11 634.233 1258.88 583.529 1243.62C537.421 1229.74 488 1226.44 453.964 1227.8C431.016 1247.57 403.125 1279.61 387.282 1316.62C370.347 1356.17 367.711 1399.35 397.06 1441.8L397.472 1442.4L397.853 1443.01C447.952 1524.34 502.156 1559.23 547.143 1571.97C589.114 1583.85 625.233 1577.12 646.516 1567.66C662.574 1545.04 683.158 1507.78 695.56 1465.14ZM748.372 1480.5C732.906 1533.68 706.678 1579.4 686.637 1605.96L682.951 1610.84L677.542 1613.7C645.229 1630.79 591.922 1641.81 532.159 1624.88C471.817 1607.8 407.319 1562.98 351.397 1472.46C309.092 1410.8 314.467 1346.95 336.72 1294.97C358.595 1243.88 397.246 1202.36 426.338 1179.28L433.027 1173.98L441.546 1173.39C480.604 1170.71 541.559 1173.55 599.38 1190.95C656.682 1208.2 716.471 1241.56 743.539 1304.1C769.376 1363.79 763.814 1427.41 748.372 1480.5Z" fill="white"/>
<path d="M1492.69 892.06C1543.52 856.657 1535.99 795.021 1525.88 768.629C1573.72 781.492 1684.28 943.569 1706.61 1044.68C1734.59 1328.09 1623.55 1515.08 1564.54 1573.14C1505.69 1551.94 1438.56 1518.71 1414 1454C1389.44 1389.29 1432.87 1366.65 1437.12 1254.81C1441.37 1142.97 1145.63 1150.62 1164.81 1007.28C1183.98 863.942 1429.16 936.314 1492.69 892.06Z" fill="#09B3AD"/>
<path d="M1492.69 892.06C1543.52 856.657 1535.99 795.021 1525.88 768.629C1573.72 781.492 1684.28 943.569 1706.61 1044.68C1734.59 1328.09 1623.55 1515.08 1564.54 1573.14C1505.69 1551.94 1438.56 1518.71 1414 1454C1389.44 1389.29 1432.87 1366.65 1437.12 1254.81C1441.37 1142.97 1145.63 1150.62 1164.81 1007.28C1183.98 863.942 1429.16 936.314 1492.69 892.06Z" fill="black" fill-opacity="0.2"/>
<path fill-rule="evenodd" clip-rule="evenodd" d="M1733.98 1041.98C1762.74 1333.36 1648.98 1528.63 1583.83 1592.74L1571.5 1604.88L1555.22 1599.01C1496.24 1577.76 1417.64 1541.09 1388.29 1463.76C1380.9 1444.28 1378.29 1426.93 1379.19 1409.86C1380.06 1393.36 1384.19 1378.27 1388.42 1364.18C1389.25 1361.41 1390.1 1358.62 1390.97 1355.78C1398.89 1329.91 1407.86 1300.57 1409.64 1253.77C1410.14 1240.57 1402.84 1227.7 1378.8 1212.24C1358.03 1198.89 1330.96 1187.57 1300.38 1174.78C1295.24 1172.63 1290 1170.44 1284.67 1168.19C1249.56 1153.36 1210.7 1135.97 1182.07 1111.67C1151.98 1086.13 1131.2 1051.09 1137.55 1003.64C1143.65 958.059 1168.68 928.467 1202.37 910.704C1234.26 893.888 1273.42 887.83 1310.06 885.09C1328.71 883.696 1347.55 883.119 1365.4 882.678C1368.53 882.601 1371.62 882.528 1374.67 882.456C1389.27 882.111 1403 881.786 1415.92 881.113C1431.56 880.299 1444.9 879.019 1455.81 876.86C1467.01 874.645 1473.53 871.895 1476.97 869.495C1494.91 856.999 1502.53 840.282 1504.9 823.189C1507.38 805.303 1503.85 787.988 1500.2 778.472L1480.87 728.053L1533.02 742.072C1544.05 745.038 1554.36 751.44 1563.19 758.21C1572.39 765.26 1581.84 774.162 1591.21 784.15C1609.98 804.145 1629.92 830.066 1648.71 858.336C1685.93 914.307 1721.24 983.397 1733.47 1038.75L1733.82 1040.35L1733.98 1041.98ZM1679.41 1049.05C1668.95 1003.44 1638.12 941.744 1602.91 888.788C1588.24 866.725 1573.26 846.858 1559.35 830.913C1555.28 860.04 1541.23 891.763 1508.41 914.626C1495.97 923.289 1480.93 927.957 1466.48 930.815C1451.75 933.729 1435.37 935.175 1418.78 936.039C1405 936.756 1390.32 937.103 1375.71 937.447C1372.72 937.518 1369.74 937.588 1366.76 937.661C1349 938.1 1331.34 938.653 1314.16 939.937C1279.17 942.554 1249.47 948.044 1228.02 959.356C1208.36 969.72 1195.55 984.834 1192.06 1010.93C1188.83 1035.14 1197.83 1052.9 1217.66 1069.73C1238.96 1087.81 1270.17 1102.36 1306.07 1117.52C1310.89 1119.56 1315.82 1121.62 1320.81 1123.7C1350.97 1136.27 1383.32 1149.76 1408.54 1165.98C1438.15 1185.02 1466.23 1213.13 1464.6 1255.85C1462.55 1310 1451.73 1345.27 1443.59 1371.79C1442.73 1374.62 1441.89 1377.34 1441.1 1379.98C1437.01 1393.62 1434.62 1403.31 1434.12 1412.76C1433.65 1421.62 1434.82 1431.36 1439.71 1444.24C1457.57 1491.31 1504.75 1520.16 1556.99 1540.9C1612.37 1476.4 1704.15 1304.47 1679.41 1049.05Z" fill="white"/>
<path fill-rule="evenodd" clip-rule="evenodd" d="M487.857 983.09C404.548 1292.96 588.216 1611.7 898.09 1695.01C1207.96 1778.32 1526.7 1594.65 1610.01 1284.78C1693.32 974.903 1509.65 656.165 1199.78 572.857C889.903 489.548 571.165 673.216 487.857 983.09ZM449.228 972.705C360.184 1303.91 556.497 1644.59 887.705 1733.64C1218.91 1822.68 1559.6 1626.37 1648.64 1295.16C1737.68 963.954 1541.37 623.272 1210.16 534.228C878.954 445.184 538.272 641.497 449.228 972.705Z" fill="white"/>
</g>
<circle cx="1080" cy="470" r="30" fill="#144E63"/>
<mask id="mask3_695_2" style="mask-type:alpha" maskUnits="userSpaceOnUse" x="319" y="345" width="1244" height="1244">
<circle cx="940.934" cy="966.934" r="621" transform="rotate(105.048 940.934 966.934)" fill="#08B2E3"/>
</mask>
<g mask="url(#mask3_695_2)">
<circle opacity="0.2" cx="1047.93" cy="1167.93" r="621" transform="rotate(105.048 1047.93 1167.93)" fill="white"/>
</g>
<path d="M980.9 870.078C981.023 869.224 981.105 868.365 981.105 867.511C981.105 857.363 973.52 848.593 963.245 847.29C952.069 845.905 941.876 853.814 940.45 865.02C936.982 892.537 924.584 918.179 905.625 937.219C887.603 955.235 864.446 967.057 838.632 971.342C827.531 973.178 819.953 983.777 821.872 994.786C823.749 1005.83 834.215 1013.42 845.309 1011.54C879.525 1005.88 910.364 990.138 934.456 966.046C959.818 940.604 976.292 906.521 980.899 870.076L980.9 870.078Z" fill="white" fill-opacity="0.7"/>
<path d="M1020.59 866.007C1017.25 912.198 997.1 955.978 963.755 989.284C930.023 1023.04 887.375 1042.65 840.467 1046.07C829.243 1046.89 820.935 1056.71 821.625 1067.88C822.431 1079.06 832.186 1087.49 843.363 1086.72C899.433 1082.61 952.437 1058.27 992.573 1018.07C1032.78 977.832 1057.17 924.837 1061.2 868.867C1061.29 868.376 1061.29 867.892 1061.29 867.4C1061.29 856.801 1053.09 847.874 1042.32 847.097C1031.11 846.319 1021.4 854.795 1020.59 866.008L1020.59 866.007Z" fill="white" fill-opacity="0.4"/>
<path d="M905.491 145.293L684.791 365.887C676.878 373.783 676.878 386.75 684.791 394.708L753.17 463.065L699.353 516.919L626.482 444.079C564.862 382.6 465.038 382.274 403.86 443.424C344.485 502.779 343.707 605.143 402.597 664.053L477.346 738.858L423.393 792.712L355.049 724.39C351.219 720.562 346.037 718.439 340.61 718.439C335.189 718.439 330.007 720.603 326.171 724.39L105.506 944.967C97.5932 952.918 97.5932 965.837 105.506 973.788L243.466 1111.74C247.296 1115.57 252.477 1117.7 257.898 1117.7C263.319 1117.7 268.5 1115.53 272.337 1111.74L493.002 891.115C496.996 887.122 498.955 881.902 498.955 876.681C498.955 871.46 496.955 866.245 493.002 862.246L452.265 821.482L506.178 767.628L602.09 863.467C610.003 871.418 622.966 871.418 630.92 863.467L668.803 825.596C664.482 840.352 661.41 855.516 661.41 870.968C661.41 912.141 677.398 950.791 706.434 979.817C710.278 983.645 715.46 985.768 720.873 985.768C726.307 985.768 731.489 983.604 735.312 979.817L934.445 780.712C938.48 776.72 940.398 771.499 940.398 766.278C940.398 761.057 938.391 755.843 934.445 751.844C893.163 710.588 833.912 698.645 780.368 714.177L824.136 670.395C828.007 666.567 830.089 661.387 830.089 655.961C830.089 650.542 827.918 645.362 824.136 641.527L728.223 545.605L782.04 491.709L822.818 532.473C826.661 536.302 831.843 538.424 837.257 538.424C842.691 538.424 847.873 536.261 851.696 532.473L1072.4 311.862C1076.4 307.869 1078.35 302.648 1078.35 297.427C1078.35 292.206 1076.36 286.999 1072.4 282.993L934.395 145.091C926.319 137.351 913.437 137.351 905.483 145.289L905.491 145.293Z" fill="#144E63" stroke="white" stroke-width="45"/>
<mask id="mask4_695_2" style="mask-type:alpha" maskUnits="userSpaceOnUse" x="273" y="316" width="593" height="594">
<rect x="273.134" y="566.308" width="355.055" height="483.446" transform="rotate(-44.7464 273.134 566.308)" fill="#D9D9D9"/>
</mask>
<g mask="url(#mask4_695_2)">
<path d="M905.492 145.29L684.792 365.884C676.879 373.78 676.879 386.747 684.792 394.705L753.171 463.062L699.353 516.916L626.483 444.076C564.863 382.597 465.039 382.271 403.861 443.421C344.486 502.776 343.708 605.14 402.598 664.05L477.347 738.856L423.394 792.709L355.05 724.387C351.22 720.559 346.038 718.436 340.611 718.436C335.19 718.436 330.008 720.6 326.172 724.387L105.507 944.964C97.5942 952.915 97.5942 965.834 105.507 973.785L243.467 1111.74C247.297 1115.57 252.478 1117.69 257.899 1117.69C263.32 1117.69 268.501 1115.53 272.338 1111.74L493.003 891.112C496.997 887.119 498.956 881.899 498.956 876.678C498.956 871.457 496.956 866.243 493.003 862.243L452.266 821.479L506.179 767.625L602.091 863.465C610.003 871.415 622.967 871.415 630.921 863.465L668.804 825.593C664.483 840.349 661.411 855.513 661.411 870.965C661.411 912.138 677.399 950.788 706.435 979.814C710.279 983.642 715.461 985.765 720.874 985.765C726.308 985.765 731.49 983.601 735.313 979.814L934.446 780.709C938.481 776.717 940.399 771.496 940.399 766.275C940.399 761.054 938.392 755.84 934.446 751.841C893.164 710.585 833.913 698.642 780.369 714.174L824.137 670.392C828.007 666.564 830.09 661.384 830.09 655.958C830.09 650.539 827.919 645.359 824.137 641.524L728.224 545.602L782.041 491.706L822.819 532.47C826.662 536.299 831.844 538.421 837.258 538.421C842.692 538.421 847.874 536.258 851.697 532.47L1072.4 311.859C1076.4 307.866 1078.35 302.645 1078.35 297.424C1078.35 292.203 1076.36 286.996 1072.4 282.99L934.396 145.088C926.32 137.349 913.438 137.349 905.484 145.286L905.492 145.29Z" fill="#1C5F78" stroke="white" stroke-width="45"/>
</g>
<rect x="121.252" y="961.123" width="310.554" height="195.379" transform="rotate(-44.9326 121.252 961.123)" fill="#09B3AD"/>
<rect x="121.252" y="961.123" width="310.554" height="195.379" transform="rotate(-44.9326 121.252 961.123)" fill="black" fill-opacity="0.2"/>
<rect x="702" y="380.336" width="310.554" height="195.379" transform="rotate(-44.9326 702 380.336)" fill="#09B3AD"/>
<rect x="702" y="380.336" width="310.554" height="195.379" transform="rotate(-44.9326 702 380.336)" fill="black" fill-opacity="0.2"/>
</g>
<defs>
<clipPath id="clip0_695_2">
<rect width="2271.68" height="2053" fill="white"/>
</clipPath>
</defs>
</svg>
